<?xml version="1.0" encoding="UTF-8" standalone="no" ?>
<!DOCTYPE svg PUBLIC "-//W3C//DTD SVG 1.1//EN" "http://www.w3.org/Graphics/SVG/1.1/DTD/svg11.dtd">
<svg xmlns="http://www.w3.org/2000/svg" xmlns:xlink="http://www.w3.org/1999/xlink" version="1.1" width="1281" height="805" viewBox="0 0 1281 805" xml:space="preserve">
<desc>Created with Fabric.js 4.6.0</desc>
<defs>
</defs>
<g transform="matrix(1 0 0 1 640.13 402.41)" id="7PP_UHttUPJkboSj68PL7"  >
<g style="" vector-effect="non-scaling-stroke"   >
		<g transform="matrix(-1.97 0 0 -2.02 0 0)" id="DlVff7qfYwO3aWac0cgCU"  >
<path style="stroke: rgb(179,179,179); stroke-width: 0; stroke-dasharray: none; stroke-linecap: butt; stroke-dashoffset: 0; stroke-linejoin: miter; stroke-miterlimit: 4; fill: rgb(255,242,209); fill-rule: nonzero; opacity: 1;" vector-effect="non-scaling-stroke"  transform=" translate(0, 0)" d="M -325.05463 52.92382 C -324.96900999999997 52.58164 -325.14432 41.311859999999996 -325.05463 40.97068 C -316.06453 6.772660000000002 -274.73274 -24.258539999999996 -238.93834999999996 -29.359139999999996 C -238.93834999999996 -29.359139999999996 -209.14015999999995 -33.60651 -194.46343999999996 -35.698499999999996 L -194.46343999999996 -35.698499999999996 C -172.16910999999996 -38.87629 -152.01901999999995 -50.39366999999999 -138.28193999999996 -67.81071 L -55.64316999999997 -172.58715999999998 L -55.64316999999997 -172.58715999999998 C -42.58106999999997 -189.14839999999998 -22.372249999999973 -198.85323999999997 -0.9481499999999699 -198.85323999999997 L -0.9481499999999699 -198.85323999999997 L 323.908 -198.85323999999997 L 325.08094 198.85321000000005 L -325.08098 198.85321000000005 z" stroke-linecap="round" />
</g>
		<g transform="matrix(-1.51 0 0 -1.54 -77.79 -59.82)" id="1HvHkmiHbAzJd8ctDfO-a"  >
<path style="stroke: rgb(179,179,179); stroke-width: 0; stroke-dasharray: none; stroke-linecap: butt; stroke-dashoffset: 0; stroke-linejoin: miter; stroke-miterlimit: 4; fill: rgb(255,251,245); fill-rule: nonzero; opacity: 1;" vector-effect="non-scaling-stroke"  transform=" translate(0, 0)" d="M -372.19304 221.29313 C -372.19304 221.29313 -365.84521 150.90257 -333.69636 104.43485 C -301.54752 57.96713 -243.59766000000002 35.42224999999999 -243.59766000000002 35.42224999999999 L -235.16293000000002 31.968749999999993 L -235.16293000000002 31.968749999999993 C -154.83105 -0.9221800000000044 -84.65709000000001 -53.632320000000014 -31.53815000000003 -120.98101 L -31.53815000000003 -120.98101 L -31.53815000000003 -120.98101 C -3.083920000000031 -157.0577 36.09313999999998 -183.69157 80.64515999999998 -197.24697 L 134.70632999999998 -213.69562000000002 L 134.70632999999998 -213.69562000000002 C 157.72304999999997 -220.69869000000003 181.99426999999997 -222.89483 205.93920999999997 -220.14100000000002 L 233.28597999999997 -216.99594000000002 L 233.28597999999997 -216.99594000000002 C 283.55341999999996 -211.21486000000002 331.41887999999994 -192.79816000000002 372.19302999999996 -163.55011000000002 L 372.19302999999996 -163.55011000000002 L 372.19302999999996 221.28906999999998 z" stroke-linecap="round" />
</g>
</g>
</g>
</svg>