<?xml version="1.0" encoding="UTF-8" standalone="no" ?>
<!DOCTYPE svg PUBLIC "-//W3C//DTD SVG 1.1//EN" "http://www.w3.org/Graphics/SVG/1.1/DTD/svg11.dtd">
<svg xmlns="http://www.w3.org/2000/svg" xmlns:xlink="http://www.w3.org/1999/xlink" version="1.1" width="270" height="175" viewBox="0 0 270 175" xml:space="preserve">
<desc>Created with Fabric.js 4.6.0</desc>
<defs>
</defs>
<g transform="matrix(1 0 0 1 134.62 86.93)" id="BnXtyOjGnrMy12LwadOA9"  >
<g style="" >
		<g transform="matrix(0.67 0 0 0.67 123.46 -47.87)" id="zs6oiFEn-cQsOSa6NftX9"  >
<path style="stroke: rgb(41,60,219); stroke-width: 4; stroke-dasharray: none; stroke-linecap: round; stroke-dashoffset: 0; stroke-linejoin: round; stroke-miterlimit: 10; fill: none; fill-rule: nonzero; opacity: 1;" transform=" translate(-489.29, -242.34)" d="M 493.2323464566928 251.39289174290445 Q 493.2283464566928 251.39289174290445 491.65354330708647 250.99919095550288 Q 490.0787401574801 250.6054901681013 489.291338582677 250.6054901681013 Q 488.50393700787384 250.6054901681013 487.7165354330707 250.99919095550288 Q 486.92913385826756 251.39289174290445 486.535433070866 251.78659253030602 Q 486.1417322834645 252.1802933177076 485.7480314960629 252.5739941051092 Q 485.3543307086613 252.96769489251076 485.3543307086613 253.36139567991233 Q 485.3543307086613 253.7550964673139 485.3543307086613 254.14879725471548 Q 485.3543307086613 254.54249804211705 485.3543307086613 254.93619882951862 Q 485.3543307086613 255.3298996169202 485.7480314960629 255.72360040432176 Q 486.1417322834645 256.11730119172336 486.9291338582676 256.11730119172336 Q 487.71653543307076 256.11730119172336 488.1102362204723 256.11730119172336 Q 488.50393700787384 256.11730119172336 489.6850393700786 255.32989961692022 Q 490.8661417322833 254.54249804211705 491.2598425196849 253.7550964673139 Q 491.6535433070865 252.96769489251076 492.04724409448806 252.1802933177076 Q 492.4409448818896 251.39289174290445 492.4409448818896 250.6054901681013 Q 492.4409448818896 249.81808859329814 492.8346456692912 248.63698623109343 Q 493.2283464566928 247.4558838688887 493.2283464566928 246.66848229408555 Q 493.2283464566928 245.8810807192824 493.2283464566928 244.30627756967613 Q 493.2283464566928 242.73147442006982 492.8346456692912 241.5503720578651 Q 492.4409448818896 240.36926969566036 492.04724409448806 239.58186812085722 Q 491.6535433070865 238.79446654605405 491.2598425196849 237.21966339644774 Q 490.8661417322833 235.64486024684146 490.4724409448817 234.46375788463672 Q 490.0787401574801 233.282655522432 489.6850393700786 232.49525394762884 Q 489.29133858267704 231.7078523728257 488.89763779527544 230.92045079802256 Q 488.50393700787384 230.13304922321942 488.1102362204723 229.73934843581785 Q 487.71653543307076 229.34564764841627 487.32283464566916 228.95194686101468 L 486.92513385826754 228.55424607361311" stroke-linecap="round" />
</g>
		<g transform="matrix(0.67 0 0 0.67 -94.33 -75.23)" id="_ItL9LHyQTUyFgl6FAItc"  >
<path style="stroke: rgb(41,60,219); stroke-width: 4; stroke-dasharray: none; stroke-linecap: round; stroke-dashoffset: 0; stroke-linejoin: round; stroke-miterlimit: 10; fill: none; fill-rule: nonzero; opacity: 1;" transform=" translate(-166.45, -201.78)" d="M 164.09848818897615 188.39676575865246 Q 164.09448818897616 188.40076575865245 164.09448818897616 188.79446654605403 Q 164.09448818897616 189.18816733345562 163.7007874015746 189.97556890825877 Q 163.30708661417302 190.7629704830619 163.30708661417302 191.55037205786505 Q 163.30708661417302 192.33777363266822 163.30708661417302 193.51887599487293 Q 163.30708661417302 194.69997835707767 162.91338582677145 195.8810807192824 Q 162.51968503936988 197.06218308148712 162.51968503936988 199.03068701849497 Q 162.51968503936988 200.99919095550285 162.51968503936988 201.786592530306 Q 162.51968503936988 202.57399410510916 162.51968503936988 203.75509646731388 Q 162.51968503936988 204.93619882951862 162.51968503936988 206.5110019791249 Q 162.51968503936988 208.0858051287312 162.51968503936988 208.47950591613278 Q 162.51968503936988 208.87320670353435 162.51968503936988 209.66060827833752 Q 162.51968503936988 210.44800985314066 162.51968503936988 211.2354114279438 Q 162.51968503936988 212.02281300274697 162.51968503936988 212.41651379014854 Q 162.51968503936988 212.8102145775501 162.51968503936988 213.20391536495168 Q 162.51968503936988 213.59761615235325 162.51968503936988 213.99131693975482 Q 162.51968503936988 214.3850177271564 162.91338582677145 214.3850177271564 Q 163.30708661417302 214.3850177271564 163.7007874015746 214.77871851455797 Q 164.09448818897616 215.17241930195956 164.48818897637776 215.17241930195956 Q 164.88188976377936 215.17241930195956 165.27559055118093 215.17241930195956 Q 165.6692913385825 215.17241930195956 166.06299212598407 215.17241930195956 Q 166.45669291338564 215.17241930195956 167.24409448818878 214.77871851455797 Q 168.03149606299192 214.3850177271564 168.4251968503935 214.3850177271564 Q 168.81889763779506 214.3850177271564 169.21259842519666 213.99131693975482 Q 169.60629921259826 213.59761615235325 169.60629921259826 213.20391536495168 Q 169.60629921259826 212.8102145775501 169.99999999999983 212.41651379014854 Q 170.3937007874014 212.02281300274697 170.3937007874014 211.2354114279438 Q 170.3937007874014 210.44800985314066 170.3937007874014 210.0543090657391 Q 170.3937007874014 209.66060827833752 170.3937007874014 209.26690749093592 Q 170.3937007874014 208.87320670353435 169.99999999999983 208.47950591613278 Q 169.60629921259826 208.0858051287312 169.60629921259826 207.69210434132964 Q 169.60629921259826 207.29840355392807 169.21259842519666 207.29840355392807 Q 168.81889763779506 207.29840355392807 168.4251968503935 206.9047027665265 Q 168.03149606299192 206.5110019791249 167.63779527559035 206.5110019791249 Q 167.24409448818878 206.5110019791249 166.8503937007872 206.5110019791249 Q 166.45669291338564 206.5110019791249 166.06299212598407 206.5110019791249 Q 165.6692913385825 206.5110019791249 165.27559055118093 206.5110019791249 Q 164.88188976377936 206.5110019791249 163.70078740157462 207.29840355392804 L 162.51568503936988 208.0898051287312" stroke-linecap="round" />
</g>
		<g transform="matrix(0.67 0 0 0.67 -128.59 22.51)" id="4hG_E5Rkdl4U2sVG1tsYK"  >
<path style="stroke: rgb(41,60,219); stroke-width: 4; stroke-dasharray: none; stroke-linecap: round; stroke-dashoffset: 0; stroke-linejoin: round; stroke-miterlimit: 10; fill: none; fill-rule: nonzero; opacity: 1;" transform=" translate(-115.67, -346.67)" d="M 118.42919685039352 349.030687018495 Q 118.42519685039352 349.030687018495 118.03149606299193 349.030687018495 Q 117.63779527559035 349.030687018495 117.24409448818878 349.030687018495 Q 116.85039370078721 349.030687018495 116.45669291338564 349.4243878058966 Q 116.06299212598407 349.81808859329817 115.27559055118091 349.81808859329817 Q 114.48818897637776 349.81808859329817 113.7007874015746 350.6054901681013 Q 112.91338582677145 351.39289174290445 112.91338582677145 351.78659253030605 Q 112.91338582677145 352.1802933177076 112.51968503936988 352.57399410510914 Q 112.1259842519683 352.96769489251074 112.1259842519683 353.7550964673139 Q 112.1259842519683 354.542498042117 112.1259842519683 354.9361988295186 Q 112.1259842519683 355.3298996169202 112.91338582677146 356.11730119172336 Q 113.70078740157462 356.9047027665265 114.09448818897619 356.9047027665265 Q 114.48818897637776 356.9047027665265 115.27559055118091 356.9047027665265 Q 116.06299212598407 356.9047027665265 116.45669291338564 356.9047027665265 Q 116.85039370078721 356.9047027665265 117.63779527559036 356.11730119172336 Q 118.42519685039352 355.3298996169202 118.81889763779509 354.9361988295186 Q 119.21259842519666 354.542498042117 119.60629921259823 353.36139567991233 Q 119.9999999999998 352.1802933177076 119.9999999999998 351.39289174290445 Q 119.9999999999998 350.6054901681013 119.9999999999998 349.4243878058966 Q 119.9999999999998 348.24328544369183 119.60629921259823 347.4558838688887 Q 119.21259842519666 346.66848229408555 119.21259842519666 346.274781506684 Q 119.21259842519666 345.8810807192824 118.4251968503935 345.09367914447927 Q 117.63779527559035 344.3062775696761 117.24409448818878 343.9125767822745 Q 116.85039370078721 343.51887599487293 116.06299212598405 342.7314744200698 Q 115.2755905511809 341.94407284526665 114.88188976377933 341.55037205786505 Q 114.48818897637776 341.1566712704635 114.09448818897619 340.76297048306196 Q 113.70078740157462 340.36926969566036 113.30708661417303 339.58186812085717 Q 112.91338582677145 338.794466546054 112.51968503936988 338.4007657586525 Q 112.1259842519683 338.0070649712509 112.1259842519683 337.6133641838493 Q 112.1259842519683 337.21966339644774 111.73228346456673 336.8259626090462 L 111.33458267716516 336.4282618216446" stroke-linecap="round" />
</g>
		<g transform="matrix(0.67 0 0 0.67 -9.26 -23.85)" id="_4EO_2ERdSEn_EHlYsIHa"  >
<path style="stroke: rgb(41,60,219); stroke-width: 4; stroke-dasharray: none; stroke-linecap: round; stroke-dashoffset: 0; stroke-linejoin: round; stroke-miterlimit: 10; fill: none; fill-rule: nonzero; opacity: 1;" transform=" translate(-292.25, -277.9)" d="M 152.96303296703286 341.3525783041147 Q 152.96703296703285 341.3565783041147 153.24175824175813 341.3565783041147 Q 153.51648351648342 341.3565783041147 153.7912087912087 341.63130357883995 Q 154.06593406593396 341.90602885356526 154.34065934065922 342.1807541282905 Q 154.6153846153845 342.4554794030158 155.7142857142856 343.00492995246634 Q 156.81318681318672 343.5543805019169 157.36263736263726 343.82910577664217 Q 157.9120879120878 344.1038310513674 158.73626373626362 344.37855632609273 Q 159.56043956043945 344.653281600818 160.38461538461527 344.92800687554325 Q 161.2087912087911 345.20273215026856 162.03296703296692 345.4774574249938 Q 162.85714285714275 345.75218269971907 164.5054945054944 346.0269079744444 Q 166.15384615384605 346.30163324916964 167.25274725274716 346.5763585238949 Q 168.35164835164824 346.8510837986202 169.45054945054935 346.8510837986202 Q 170.54945054945046 346.8510837986202 171.92307692307682 346.8510837986202 Q 173.29670329670319 346.8510837986202 174.120879120879 346.8510837986202 Q 174.94505494505484 346.8510837986202 176.04395604395592 346.8510837986202 Q 177.14285714285703 346.8510837986202 178.24175824175813 346.5763585238949 Q 179.34065934065924 346.30163324916964 180.16483516483507 346.30163324916964 Q 180.9890109890109 346.30163324916964 182.087912087912 346.0269079744444 Q 183.18681318681308 345.75218269971907 184.0109890109889 345.4774574249938 Q 184.83516483516473 345.20273215026856 185.9340659340658 344.92800687554325 Q 187.03296703296692 344.653281600818 187.85714285714275 344.1038310513675 Q 188.68131868131857 343.5543805019169 189.5054945054944 343.2796552271916 Q 190.32967032967022 343.00492995246634 191.15384615384605 342.1807541282905 Q 191.97802197802187 341.3565783041147 192.5274725274724 340.8071277546642 Q 193.07692307692298 340.2576772052136 193.9010989010988 339.70822665576304 Q 194.72527472527463 339.1587761063125 194.9999999999999 338.6093255568619 Q 195.27472527472517 338.0598750074114 195.8241758241757 337.5104244579609 Q 196.37362637362625 336.9609739085103 197.19780219780208 335.86207280960923 Q 198.0219780219779 334.7631717107081 198.57142857142844 333.93899588653227 Q 199.120879120879 333.11482006235644 199.67032967032958 332.2906442381806 Q 200.21978021978012 331.4664684140048 200.76923076923066 330.64229258982897 Q 201.3186813186812 329.81811676565314 201.59340659340648 328.71921566675206 Q 201.86813186813177 327.620314567851 202.14285714285705 326.79613874367516 Q 202.4175824175823 325.97196291949933 202.4175824175823 325.1477870953235 Q 202.4175824175823 324.3236112711477 202.69230769230757 323.22471017224655 Q 202.96703296703285 322.12580907334547 202.96703296703285 321.0269079744444 Q 202.96703296703285 319.92800687554325 203.24175824175813 318.82910577664217 Q 203.51648351648342 317.7302046777411 203.51648351648342 316.90602885356526 Q 203.51648351648342 316.08185302938944 203.51648351648342 315.2576772052136 Q 203.51648351648342 314.4335013810378 203.24175824175813 313.60932555686196 Q 202.96703296703285 312.78514973268614 202.96703296703285 311.41152335905974 Q 202.96703296703285 310.0378969854334 202.69230769230757 308.9389958865323 Q 202.4175824175823 307.8400947876312 202.4175824175823 307.2906442381807 Q 202.4175824175823 306.7411936887301 202.14285714285705 305.9170178645543 Q 201.86813186813177 305.09284204037846 201.86813186813177 304.26866621620263 Q 201.86813186813177 303.4444903920268 201.59340659340648 302.620314567851 Q 201.3186813186812 301.79613874367516 201.04395604395592 300.42251237004876 Q 200.76923076923066 299.04888599642237 200.4945054945054 298.22471017224655 Q 200.21978021978012 297.4005343480707 199.94505494505484 296.5763585238949 Q 199.67032967032955 295.75218269971907 199.39560439560427 294.92800687554325 Q 199.120879120879 294.1038310513674 198.57142857142844 293.00492995246634 Q 198.0219780219779 291.90602885356526 197.74725274725262 291.08185302938944 Q 197.47252747252736 290.2576772052136 196.9230769230768 289.70822665576304 Q 196.37362637362625 289.15877610631253 196.09890109890097 288.3346002821367 Q 195.8241758241757 287.5104244579609 195.27472527472517 286.68624863378506 Q 194.72527472527463 285.86207280960923 194.17582417582406 285.0378969854334 Q 193.62637362637352 284.2137211612576 193.07692307692298 283.664270611807 Q 192.5274725274724 283.11482006235644 192.25274725274716 282.56536951290593 Q 191.97802197802187 282.01591896345536 191.42857142857133 281.4664684140048 Q 190.87912087912076 280.9170178645543 190.05494505494494 280.3675673151037 Q 189.2307692307691 279.81811676565314 188.4065934065933 279.26866621620263 Q 187.58241758241746 278.71921566675206 187.03296703296692 278.44449039202675 Q 186.48351648351638 278.1697651173015 185.9340659340658 277.89503984257624 Q 185.38461538461527 277.620314567851 184.56043956043945 277.3455892931257 Q 183.73626373626362 277.0708640184004 182.36263736263726 276.52141346894985 Q 180.9890109890109 275.97196291949933 180.16483516483507 275.6972376447741 Q 179.34065934065924 275.42251237004876 178.51648351648342 275.14778709532345 Q 177.6923076923076 274.8730618205982 176.86813186813177 274.3236112711477 Q 176.04395604395594 273.7741607216971 174.94505494505484 273.4994354469718 Q 173.84615384615375 273.22471017224655 173.02197802197793 273.22471017224655 Q 172.1978021978021 273.22471017224655 171.37362637362628 273.22471017224655 Q 170.54945054945046 273.22471017224655 169.9999999999999 273.22471017224655 Q 169.45054945054935 273.22471017224655 168.9010989010988 273.22471017224655 Q 168.35164835164824 273.22471017224655 167.25274725274716 273.22471017224655 Q 166.15384615384605 273.22471017224655 165.32967032967022 273.4994354469718 Q 164.5054945054944 273.7741607216971 163.68131868131857 274.0488859964224 Q 162.85714285714275 274.3236112711477 162.03296703296692 274.59833654587294 Q 161.2087912087911 274.8730618205982 160.10989010989 275.42251237004876 Q 159.0109890109889 275.97196291949933 158.46153846153834 276.52141346894985 Q 157.9120879120878 277.0708640184004 157.08791208791197 277.620314567851 Q 156.26373626373615 278.1697651173015 155.16483516483504 278.71921566675206 Q 154.06593406593396 279.26866621620263 152.96703296703288 280.09284204037846 Q 151.86813186813177 280.9170178645543 151.04395604395594 281.7411936887301 Q 150.21978021978012 282.56536951290593 149.67032967032958 283.38954533708176 Q 149.120879120879 284.2137211612576 148.29670329670319 285.0378969854334 Q 147.47252747252736 285.86207280960923 146.64835164835154 286.9609739085103 Q 145.8241758241757 288.0598750074114 144.9999999999999 289.9829519304883 Q 144.17582417582406 291.90602885356526 143.62637362637352 293.2796552271916 Q 143.07692307692298 294.653281600818 142.5274725274724 296.0269079744444 Q 141.97802197802187 297.4005343480707 141.42857142857133 298.4994354469718 Q 140.8791208791208 299.59833654587294 140.32967032967025 301.7961387436751 Q 139.78021978021968 303.9939409414773 139.50549450549443 305.0928420403784 Q 139.23076923076914 306.19174313927954 138.95604395604386 307.2906442381807 Q 138.68131868131857 308.38954533708176 138.68131868131857 309.7631717107081 Q 138.68131868131857 311.1367980843345 138.68131868131857 312.2356991832356 Q 138.68131868131857 313.3346002821367 138.68131868131857 314.9829519304883 Q 138.68131868131857 316.63130357883995 138.95604395604386 317.4554794030158 Q 139.23076923076914 318.2796552271916 139.78021978021968 319.1038310513674 Q 140.32967032967022 319.92800687554325 140.87912087912076 321.30163324916964 Q 141.42857142857133 322.67525962279603 141.97802197802187 323.22471017224655 Q 142.5274725274724 323.7741607216971 143.07692307692298 324.3236112711477 Q 143.62637362637352 324.8730618205982 144.17582417582406 325.42251237004876 Q 144.72527472527463 325.97196291949933 145.27472527472517 326.2466881942246 Q 145.8241758241757 326.52141346894985 146.37362637362628 326.52141346894985 Q 146.92307692307682 326.52141346894985 147.74725274725265 326.52141346894985 Q 148.57142857142847 326.52141346894985 149.67032967032958 326.52141346894985 Q 150.76923076923066 326.52141346894985 151.31868131868123 325.97196291949933 Q 151.86813186813177 325.42251237004876 152.4175824175823 325.14778709532345 Q 152.96703296703285 324.8730618205982 153.79120879120867 324.04888599642237 Q 154.6153846153845 323.22471017224655 155.43956043956032 322.4005343480707 Q 156.26373626373615 321.5763585238949 156.8131868131867 321.0269079744444 Q 157.36263736263726 320.4774574249938 157.91208791208783 319.653281600818 Q 158.46153846153837 318.82910577664217 159.0109890109889 318.00492995246634 Q 159.56043956043945 317.1807541282905 160.10989010989 316.63130357883995 Q 160.65934065934056 316.08185302938944 161.20879120879113 314.9829519304883 Q 161.75824175824167 313.8840508315872 162.03296703296695 313.0598750074114 Q 162.3076923076922 312.23569918323557 162.85714285714275 311.41152335905974 Q 163.4065934065933 310.5873475348839 163.68131868131857 309.7631717107081 Q 163.95604395604386 308.93899588653227 164.5054945054944 307.56536951290593 Q 165.05494505494494 306.19174313927954 165.32967032967022 305.3675673151037 Q 165.6043956043955 304.5433914909279 165.87912087912076 303.71921566675206 Q 166.15384615384605 302.89503984257624 166.42857142857133 302.0708640184004 Q 166.7032967032966 301.2466881942246 166.97802197802187 300.14778709532345 Q 167.25274725274716 299.04888599642237 167.8021978021977 297.67525962279603 Q 168.35164835164824 296.30163324916964 168.62637362637352 295.2027321502685 Q 168.9010989010988 294.1038310513674 169.17582417582406 293.00492995246634 Q 169.45054945054935 291.90602885356526 169.72527472527463 290.8071277546642 Q 169.9999999999999 289.70822665576304 170.27472527472517 288.33460028213665 Q 170.54945054945046 286.9609739085103 170.8241758241757 285.86207280960923 Q 171.098901098901 284.7631717107081 171.37362637362628 283.93899588653227 Q 171.64835164835154 283.11482006235644 171.92307692307682 281.74119368873005 Q 172.1978021978021 280.3675673151037 172.47252747252736 279.26866621620263 Q 172.74725274725265 278.1697651173015 173.29670329670319 276.7961387436751 Q 173.84615384615375 275.42251237004876 174.120879120879 274.3236112711477 Q 174.3956043956043 273.22471017224655 174.67032967032958 272.4005343480708 Q 174.94505494505484 271.57635852389495 175.2197802197801 270.4774574249939 Q 175.49450549450538 269.37855632609273 175.76923076923066 268.00492995246634 Q 176.04395604395594 266.63130357884 176.31868131868123 265.8071277546642 Q 176.59340659340648 264.98295193048835 176.86813186813174 264.15877610631253 Q 177.14285714285703 263.3346002821367 177.4175824175823 262.5104244579609 Q 177.6923076923076 261.68624863378506 177.96703296703288 260.86207280960923 Q 178.24175824175813 260.0378969854334 178.5164835164834 258.9389958865323 Q 178.79120879120867 257.8400947876312 179.06593406593396 257.01591896345536 Q 179.34065934065924 256.19174313927954 179.89010989010978 255.3675673151037 Q 180.43956043956032 254.5433914909279 180.7142857142856 253.99394094147735 Q 180.9890109890109 253.4444903920268 181.26373626373618 252.3455892931257 Q 181.53846153846143 251.2466881942246 182.087912087912 250.42251237004876 Q 182.63736263736254 249.59833654587294 182.91208791208783 248.77416072169711 Q 183.18681318681308 247.9499848975213 183.73626373626365 247.40053434807075 Q 184.2857142857142 246.8510837986202 184.56043956043948 246.02690797444438 Q 184.83516483516473 245.20273215026856 185.38461538461527 244.37855632609273 Q 185.9340659340658 243.5543805019169 186.48351648351638 243.00492995246637 Q 187.03296703296692 242.45547940301583 187.3076923076922 241.63130357884 Q 187.58241758241746 240.80712775466418 187.85714285714275 240.2576772052136 Q 188.13186813186803 239.70822665576304 188.68131868131857 239.1587761063125 Q 189.2307692307691 238.60932555686196 189.78021978021968 238.05987500741142 Q 190.32967032967022 237.51042445796088 190.6043956043955 236.9609739085103 Q 190.87912087912076 236.41152335905974 191.15384615384605 235.8620728096092 Q 191.42857142857133 235.31262226015866 191.97802197802187 234.76317171070812 Q 192.5274725274724 234.21372116125758 192.8021978021977 233.9389958865323 Q 193.07692307692298 233.664270611807 193.62637362637352 233.11482006235647 Q 194.17582417582406 232.56536951290593 194.72527472527463 232.01591896345536 Q 195.27472527472517 231.46646841400482 195.8241758241757 230.91701786455428 Q 196.37362637362625 230.3675673151037 196.9230769230768 229.81811676565317 Q 197.47252747252736 229.26866621620263 198.02197802197793 228.99394094147735 Q 198.57142857142847 228.71921566675206 199.120879120879 228.16976511730152 Q 199.67032967032955 227.62031456785098 200.2197802197801 227.3455892931257 Q 200.76923076923066 227.0708640184004 201.31868131868123 226.79613874367516 Q 201.86813186813177 226.52141346894987 202.6923076923076 225.69723764477405 Q 203.51648351648342 224.87306182059822 204.06593406593396 224.59833654587294 Q 204.6153846153845 224.32361127114768 205.16483516483504 224.0488859964224 Q 205.7142857142856 223.77416072169711 206.26373626373615 223.49943544697186 Q 206.8131868131867 223.22471017224657 207.63736263736251 222.67525962279603 Q 208.46153846153834 222.12580907334547 209.0109890109889 221.8510837986202 Q 209.56043956043945 221.57635852389492 210.10989010989 221.30163324916964 Q 210.65934065934056 221.02690797444438 211.2087912087911 220.7521826997191 Q 211.75824175824164 220.47745742499382 212.3076923076922 220.20273215026856 Q 212.85714285714275 219.9280068755433 213.68131868131857 219.65328160081802 Q 214.5054945054944 219.37855632609273 215.6043956043955 219.10383105136745 Q 216.7032967032966 218.82910577664217 217.25274725274716 218.5543805019169 Q 217.8021978021977 218.27965522719165 218.35164835164824 218.00492995246637 Q 218.90109890109878 217.73020467774109 219.7252747252746 217.4554794030158 Q 220.54945054945043 217.18075412829052 221.37362637362625 216.90602885356526 Q 222.19780219780208 216.63130357884 222.74725274725262 216.63130357884 Q 223.29670329670319 216.63130357884 223.84615384615375 216.63130357884 Q 224.3956043956043 216.63130357884 224.94505494505484 216.35657830411472 Q 225.49450549450538 216.08185302938944 225.76923076923066 216.08185302938944 Q 226.04395604395594 216.08185302938944 226.86813186813177 216.08185302938944 Q 227.6923076923076 216.08185302938944 227.96703296703288 215.80712775466415 Q 228.24175824175813 215.53240247993887 228.79120879120867 215.53240247993887 Q 229.34065934065922 215.53240247993887 229.89010989010978 215.53240247993887 Q 230.43956043956032 215.53240247993887 230.98901098901086 215.53240247993887 Q 231.53846153846143 215.53240247993887 232.08791208791197 215.53240247993887 Q 232.63736263736251 215.53240247993887 233.46153846153834 215.2576772052136 Q 234.28571428571416 214.98295193048835 234.83516483516473 214.98295193048835 Q 235.38461538461527 214.98295193048835 236.48351648351638 214.98295193048835 Q 237.58241758241746 214.98295193048835 238.4065934065933 214.98295193048835 Q 239.2307692307691 214.98295193048835 240.05494505494494 214.98295193048835 Q 240.87912087912076 214.98295193048835 241.7032967032966 214.98295193048835 Q 242.5274725274724 214.98295193048835 244.17582417582406 214.98295193048835 Q 245.8241758241757 214.98295193048835 246.9230769230768 214.98295193048835 Q 248.0219780219779 214.98295193048835 249.120879120879 214.98295193048835 Q 250.2197802197801 214.98295193048835 251.3186813186812 214.98295193048835 Q 252.4175824175823 214.98295193048835 254.06593406593396 214.98295193048835 Q 255.7142857142856 214.98295193048835 256.8131868131867 214.98295193048835 Q 257.9120879120878 214.98295193048835 259.0109890109889 214.98295193048835 Q 260.10989010989 214.98295193048835 261.2087912087911 214.70822665576307 Q 262.3076923076922 214.4335013810378 263.4065934065933 214.4335013810378 Q 264.50549450549437 214.4335013810378 265.87912087912076 214.15877610631253 Q 267.25274725274716 213.88405083158725 268.9010989010988 213.88405083158725 Q 270.54945054945046 213.88405083158725 271.9230769230768 213.60932555686196 Q 273.2967032967032 213.3346002821367 274.120879120879 213.3346002821367 Q 274.94505494505484 213.3346002821367 276.0439560439559 213.05987500741142 Q 277.142857142857 212.78514973268614 278.79120879120865 212.78514973268614 Q 280.4395604395603 212.78514973268614 281.53846153846143 212.51042445796088 Q 282.6373626373625 212.2356991832356 283.7362637362636 212.2356991832356 Q 284.83516483516473 212.2356991832356 286.2087912087911 212.2356991832356 Q 287.58241758241746 212.2356991832356 288.68131868131854 211.9609739085103 Q 289.7802197802197 211.68624863378506 291.42857142857133 211.68624863378506 Q 293.076923076923 211.68624863378506 294.4505494505494 211.41152335905977 Q 295.8241758241757 211.1367980843345 297.47252747252736 211.1367980843345 Q 299.120879120879 211.1367980843345 300.49450549450535 210.86207280960923 Q 301.86813186813174 210.58734753488395 304.0659340659339 210.31262226015866 Q 306.2637362637361 210.0378969854334 307.91208791208777 210.0378969854334 Q 309.5604395604394 210.0378969854334 310.9340659340658 209.76317171070812 Q 312.3076923076922 209.48844643598284 313.95604395604386 209.48844643598284 Q 315.6043956043955 209.48844643598284 317.25274725274716 209.48844643598284 Q 318.9010989010988 209.48844643598284 321.098901098901 209.21372116125758 Q 323.2967032967032 208.9389958865323 324.94505494505484 208.9389958865323 Q 326.5934065934065 208.9389958865323 328.24175824175813 208.9389958865323 Q 329.8901098901098 208.9389958865323 331.2637362637362 208.9389958865323 Q 332.6373626373625 208.9389958865323 334.28571428571416 208.9389958865323 Q 335.9340659340658 208.9389958865323 337.30769230769215 208.9389958865323 Q 338.68131868131854 208.9389958865323 339.7802197802197 208.9389958865323 Q 340.87912087912076 208.9389958865323 341.97802197802184 208.9389958865323 Q 343.0769230769229 208.9389958865323 344.175824175824 208.9389958865323 Q 345.27472527472514 208.9389958865323 346.64835164835154 208.9389958865323 Q 348.0219780219779 208.9389958865323 349.94505494505484 209.21372116125758 Q 351.86813186813174 209.48844643598284 353.24175824175813 209.48844643598284 Q 354.61538461538447 209.48844643598284 355.98901098901086 209.48844643598284 Q 357.36263736263726 209.48844643598284 359.28571428571416 209.76317171070812 Q 361.20879120879107 210.0378969854334 362.30769230769215 210.0378969854334 Q 363.4065934065933 210.0378969854334 364.50549450549437 210.31262226015866 Q 365.60439560439545 210.58734753488395 366.4285714285713 210.58734753488395 Q 367.2527472527471 210.58734753488395 368.35164835164824 210.86207280960923 Q 369.4505494505493 211.1367980843345 370.5494505494504 211.41152335905977 Q 371.64835164835154 211.68624863378506 372.7472527472526 211.9609739085103 Q 373.8461538461537 212.2356991832356 374.6703296703295 212.2356991832356 Q 375.49450549450535 212.2356991832356 376.3186813186812 212.51042445796088 Q 377.142857142857 212.78514973268614 378.5164835164834 213.05987500741142 Q 379.8901098901098 213.3346002821367 380.7142857142856 213.60932555686196 Q 381.53846153846143 213.88405083158725 382.6373626373625 214.15877610631253 Q 383.7362637362636 214.4335013810378 384.83516483516473 214.70822665576307 Q 385.9340659340658 214.98295193048835 387.0329670329669 215.2576772052136 Q 388.131868131868 215.53240247993887 388.9560439560438 216.08185302938944 Q 389.7802197802196 216.63130357884 391.4285714285713 217.18075412829054 Q 393.0769230769229 217.73020467774109 394.175824175824 218.00492995246637 Q 395.27472527472514 218.27965522719165 396.3736263736263 218.5543805019169 Q 397.47252747252736 218.82910577664217 399.120879120879 219.37855632609273 Q 400.76923076923066 219.9280068755433 401.86813186813174 220.20273215026856 Q 402.9670329670328 220.47745742499382 404.0659340659339 221.02690797444438 Q 405.16483516483504 221.57635852389492 406.2637362637361 221.8510837986202 Q 407.3626373626372 222.12580907334547 408.46153846153834 222.40053434807075 Q 409.5604395604394 222.67525962279603 410.93406593406576 222.9499848975213 Q 412.30769230769215 223.22471017224657 413.68131868131854 223.77416072169711 Q 415.05494505494494 224.32361127114768 415.87912087912076 224.59833654587294 Q 416.7032967032966 224.87306182059822 417.5274725274724 225.1477870953235 Q 418.35164835164824 225.42251237004876 419.17582417582406 225.42251237004876 Q 419.9999999999999 225.42251237004876 420.8241758241757 225.97196291949933 Q 421.64835164835154 226.52141346894987 422.19780219780205 226.79613874367516 Q 422.7472527472526 227.0708640184004 423.2967032967032 227.0708640184004 Q 423.8461538461537 227.0708640184004 424.12087912087895 227.3455892931257 Q 424.39560439560427 227.62031456785098 425.2197802197801 227.89503984257624 Q 426.0439560439559 228.16976511730152 426.31868131868123 228.4444903920268 Q 426.5934065934065 228.71921566675206 427.142857142857 228.71921566675206 Q 427.69230769230757 228.71921566675206 427.9670329670329 228.99394094147735 Q 428.24175824175813 229.26866621620263 428.79120879120865 229.5433914909279 Q 429.3406593406592 229.81811676565317 429.61538461538447 230.09284204037846 Q 429.8901098901097 230.3675673151037 430.16483516483504 230.642292589829 Q 430.4395604395603 230.91701786455428 430.71428571428555 230.91701786455428 Q 430.98901098901086 230.91701786455428 431.2637362637361 231.19174313927954 Q 431.5384615384614 231.46646841400482 431.8131868131867 231.7411936887301 Q 432.08791208791195 232.01591896345536 432.63736263736246 232.29064423818065 Q 433.186813186813 232.56536951290593 433.46153846153834 232.8400947876312 Q 433.7362637362636 233.11482006235644 434.01098901098885 233.38954533708173 Q 434.28571428571416 233.664270611807 434.5604395604394 233.9389958865323 Q 434.8351648351647 234.21372116125758 435.38461538461524 234.76317171070812 Q 435.9340659340658 235.31262226015866 436.4835164835164 235.58734753488395 Q 437.0329670329669 235.86207280960923 437.30769230769215 236.1367980843345 Q 437.58241758241746 236.41152335905974 438.13186813186803 236.68624863378503 Q 438.68131868131854 236.9609739085103 439.23076923076906 237.51042445796085 Q 439.7802197802196 238.0598750074114 440.3296703296702 238.33460028213668 Q 440.87912087912076 238.60932555686196 441.153846153846 238.88405083158725 Q 441.4285714285713 239.15877610631253 441.97802197802184 239.4335013810378 Q 442.5274725274724 239.70822665576304 442.80219780219767 239.98295193048833 Q 443.0769230769229 240.2576772052136 443.6263736263735 240.80712775466415 Q 444.17582417582406 241.3565783041147 444.4505494505493 241.63130357883998 Q 444.7252747252746 241.90602885356526 445.27472527472514 242.73020467774109 L 445.82817582417573 243.5583805019169" stroke-linecap="round" />
</g>
		<g transform="matrix(0.67 0 0 0.67 -38.72 30.82)" id="35mk2s_BaXC67yB4bKAy0"  >
<path style="stroke: rgb(41,60,219); stroke-width: 4; stroke-dasharray: none; stroke-linecap: round; stroke-dashoffset: 0; stroke-linejoin: round; stroke-miterlimit: 10; fill: none; fill-rule: nonzero; opacity: 1;" transform=" translate(-248.57, -358.94)" d="M 202.96303296703286 279.8181167656532 Q 202.96703296703285 279.8181167656532 203.24175824175813 279.8181167656532 Q 203.5164835164834 279.8181167656532 203.79120879120867 279.8181167656532 Q 204.06593406593396 279.8181167656532 204.6153846153845 279.8181167656532 Q 205.16483516483504 279.8181167656532 205.98901098901086 279.5433914909279 Q 206.8131868131867 279.26866621620263 207.63736263736251 279.26866621620263 Q 208.46153846153834 279.26866621620263 209.28571428571416 279.26866621620263 Q 210.10989010989 279.26866621620263 211.2087912087911 279.26866621620263 Q 212.3076923076922 279.26866621620263 212.85714285714275 279.26866621620263 Q 213.4065934065933 279.26866621620263 213.95604395604386 279.5433914909279 Q 214.5054945054944 279.8181167656532 215.05494505494494 280.0928420403785 Q 215.60439560439548 280.36756731510377 216.7032967032966 280.9170178645543 Q 217.8021978021977 281.46646841400485 218.35164835164824 281.74119368873016 Q 218.90109890109878 282.0159189634554 219.45054945054932 282.56536951290593 Q 219.9999999999999 283.1148200623565 220.54945054945046 283.3895453370818 Q 221.098901098901 283.66427061180707 221.64835164835154 284.2137211612576 Q 222.19780219780208 284.76317171070815 223.29670329670319 285.587347534884 Q 224.39560439560427 286.4115233590598 224.94505494505484 286.6862486337851 Q 225.49450549450538 286.96097390851037 226.04395604395592 287.5104244579609 Q 226.59340659340648 288.05987500741145 227.4175824175823 288.609325556862 Q 228.24175824175813 289.15877610631253 229.06593406593396 289.7082266557631 Q 229.89010989010978 290.25767720521367 230.43956043956032 290.8071277546642 Q 230.98901098901086 291.35657830411475 231.8131868131867 291.63130357884 Q 232.63736263736251 291.90602885356526 233.18681318681308 292.1807541282906 Q 233.73626373626362 292.45547940301583 234.28571428571416 292.7302046777411 Q 234.8351648351647 293.0049299524664 236.20879120879107 293.27965522719165 Q 237.58241758241746 293.5543805019169 238.4065934065933 293.8291057766422 Q 239.2307692307691 294.1038310513675 239.78021978021968 294.37855632609273 Q 240.32967032967022 294.65328160081805 241.15384615384605 294.65328160081805 Q 241.97802197802187 294.65328160081805 243.07692307692298 295.2027321502686 Q 244.17582417582406 295.7521826997191 244.7252747252746 295.7521826997191 Q 245.27472527472514 295.7521826997191 246.09890109890097 296.0269079744444 Q 246.9230769230768 296.30163324916964 247.74725274725262 296.5763585238949 Q 248.57142857142844 296.8510837986202 249.39560439560427 297.1258090733455 Q 250.2197802197801 297.4005343480708 251.3186813186812 297.67525962279603 Q 252.4175824175823 297.9499848975213 254.06593406593396 298.22471017224655 Q 255.71428571428558 298.49943544697186 256.5384615384614 298.77416072169717 Q 257.3626373626372 299.0488859964224 258.46153846153834 299.3236112711477 Q 259.5604395604395 299.59833654587294 260.9340659340658 299.8730618205982 Q 262.30769230769215 300.1477870953235 263.4065934065933 300.4225123700488 Q 264.5054945054944 300.6972376447741 265.6043956043955 300.6972376447741 Q 266.7032967032966 300.6972376447741 267.80219780219767 300.97196291949933 Q 268.90109890109875 301.2466881942246 269.7252747252746 301.2466881942246 Q 270.5494505494504 301.2466881942246 271.64835164835154 301.2466881942246 Q 272.7472527472526 301.2466881942246 273.8461538461537 301.2466881942246 Q 274.94505494505484 301.2466881942246 275.76923076923066 301.2466881942246 Q 276.5934065934065 301.2466881942246 277.4175824175823 301.2466881942246 Q 278.24175824175813 301.2466881942246 279.3406593406592 300.97196291949933 Q 280.4395604395603 300.6972376447741 280.98901098901086 300.4225123700488 Q 281.53846153846143 300.1477870953235 282.36263736263726 299.8730618205982 Q 283.1868131868131 299.59833654587294 283.7362637362636 299.3236112711477 Q 284.28571428571416 299.0488859964224 284.83516483516473 298.77416072169717 Q 285.38461538461524 298.49943544697186 286.20879120879107 298.22471017224655 Q 287.0329670329669 297.9499848975213 288.13186813186803 297.4005343480708 Q 289.2307692307691 296.8510837986202 289.7802197802197 296.8510837986202 Q 290.3296703296702 296.8510837986202 291.153846153846 296.5763585238949 Q 291.97802197802184 296.30163324916964 292.80219780219767 296.30163324916964 Q 293.6263736263735 296.30163324916964 294.9999999999999 296.0269079744444 Q 296.3736263736263 295.7521826997191 296.9230769230768 295.7521826997191 Q 297.47252747252736 295.7521826997191 298.2967032967032 295.7521826997191 Q 299.12087912087895 295.7521826997191 299.6703296703295 295.7521826997191 Q 300.2197802197801 295.7521826997191 301.0439560439559 295.7521826997191 Q 301.86813186813174 295.7521826997191 302.9670329670328 296.0269079744444 Q 304.0659340659339 296.30163324916964 304.61538461538447 296.5763585238949 Q 305.16483516483504 296.8510837986202 305.98901098901086 297.1258090733455 Q 306.8131868131867 297.4005343480708 307.36263736263726 297.67525962279603 Q 307.9120879120878 297.9499848975213 309.0109890109889 298.49943544697186 Q 310.10989010989 299.0488859964224 310.6593406593405 299.59833654587294 Q 311.20879120879107 300.1477870953235 311.75824175824164 300.6972376447741 Q 312.30769230769215 301.2466881942246 312.8571428571427 301.52141346894985 Q 313.4065934065933 301.79613874367516 313.9560439560438 302.3455892931257 Q 314.50549450549437 302.89503984257624 315.3296703296702 303.71921566675206 Q 316.153846153846 304.5433914909279 316.7032967032966 305.09284204037846 Q 317.2527472527471 305.642292589829 317.80219780219767 306.46646841400485 Q 318.35164835164824 307.2906442381807 318.90109890109875 307.8400947876312 Q 319.4505494505493 308.38954533708176 320.27472527472514 309.48844643598284 Q 321.09890109890097 310.587347534884 321.64835164835154 311.4115233590598 Q 322.19780219780205 312.2356991832356 322.7472527472526 312.78514973268614 Q 323.2967032967032 313.3346002821367 323.57142857142844 314.15877610631253 Q 323.8461538461537 314.98295193048835 324.39560439560427 316.08185302938944 Q 324.94505494505484 317.1807541282906 325.49450549450535 318.55438050191697 Q 326.0439560439559 319.9280068755433 326.31868131868123 320.7521826997191 Q 326.5934065934065 321.57635852389495 326.86813186813174 322.67525962279603 Q 327.142857142857 323.77416072169717 327.69230769230757 324.87306182059825 Q 328.24175824175813 325.97196291949933 328.5164835164834 327.620314567851 Q 328.79120879120865 329.26866621620263 329.3406593406592 330.3675673151037 Q 329.8901098901098 331.4664684140048 329.8901098901098 332.56536951290593 Q 329.8901098901098 333.66427061180707 330.16483516483504 335.0378969854334 Q 330.4395604395603 336.41152335905974 330.71428571428555 337.5104244579609 Q 330.98901098901086 338.609325556862 331.2637362637362 340.8071277546642 Q 331.53846153846143 343.00492995246634 331.8131868131867 344.37855632609273 Q 332.08791208791195 345.7521826997191 332.3626373626372 347.1258090733455 Q 332.6373626373625 348.49943544697186 332.9120879120878 349.8730618205982 Q 333.1868131868131 351.2466881942246 333.46153846153834 353.1697651173015 Q 333.7362637362636 355.09284204037846 334.01098901098885 356.4664684140048 Q 334.28571428571416 357.8400947876312 334.28571428571416 359.2137211612576 Q 334.28571428571416 360.587347534884 334.5604395604395 361.96097390851037 Q 334.83516483516473 363.3346002821367 334.83516483516473 364.70822665576304 Q 334.83516483516473 366.08185302938944 335.10989010989 367.45547940301583 Q 335.38461538461524 368.8291057766422 335.38461538461524 371.0269079744444 Q 335.38461538461524 373.2247101722466 335.38461538461524 374.59833654587294 Q 335.38461538461524 375.97196291949933 335.38461538461524 377.3455892931257 Q 335.38461538461524 378.7192156667521 335.10989010989 380.642292589829 Q 334.83516483516473 382.56536951290593 334.83516483516473 383.9389958865323 Q 334.83516483516473 385.3126222601587 334.5604395604395 386.68624863378506 Q 334.28571428571416 388.0598750074114 333.7362637362636 389.4335013810378 Q 333.1868131868131 390.8071277546642 332.9120879120878 392.1807541282906 Q 332.6373626373625 393.5543805019169 332.3626373626372 394.92800687554325 Q 332.08791208791195 396.30163324916964 331.2637362637361 398.22471017224655 Q 330.4395604395603 400.1477870953235 329.8901098901098 401.52141346894985 Q 329.3406593406592 402.89503984257624 328.79120879120865 403.9939409414774 Q 328.24175824175813 405.09284204037846 327.142857142857 407.0159189634554 Q 326.0439560439559 408.9389958865323 325.2197802197801 410.3126222601587 Q 324.39560439560427 411.68624863378506 323.57142857142844 412.78514973268614 Q 322.7472527472526 413.8840508315873 321.9230769230768 414.98295193048835 Q 321.09890109890097 416.08185302938944 319.9999999999999 417.45547940301583 Q 318.90109890109875 418.8291057766422 317.80219780219767 419.9280068755433 Q 316.7032967032966 421.0269079744444 315.87912087912076 421.57635852389495 Q 315.05494505494494 422.1258090733455 314.2307692307691 422.94998489752135 Q 313.4065934065933 423.77416072169717 312.8571428571427 424.3236112711477 Q 312.30769230769215 424.8730618205982 311.4835164835163 425.42251237004876 Q 310.6593406593405 425.97196291949933 309.28571428571416 426.5214134689499 Q 307.9120879120878 427.07086401840047 307.087912087912 427.3455892931257 Q 306.2637362637362 427.620314567851 305.43956043956035 428.1697651173015 Q 304.6153846153845 428.71921566675206 303.5164835164834 429.26866621620263 Q 302.41758241758225 429.81811676565314 301.3186813186812 430.09284204037846 Q 300.2197802197801 430.36756731510377 298.2967032967032 431.1917431392796 Q 296.3736263736263 432.0159189634554 294.72527472527463 432.84009478763124 Q 293.076923076923 433.66427061180707 291.42857142857133 434.2137211612576 Q 289.7802197802197 434.7631717107081 287.8571428571428 435.0378969854334 Q 285.9340659340658 435.3126222601587 283.46153846153834 435.86207280960923 Q 280.98901098901086 436.41152335905974 279.3406593406592 436.68624863378506 Q 277.69230769230757 436.96097390851037 275.7692307692306 437.2356991832356 Q 273.8461538461537 437.5104244579609 272.19780219780205 437.78514973268614 Q 270.5494505494504 438.0598750074114 268.0769230769229 438.3346002821367 Q 265.60439560439545 438.609325556862 263.68131868131854 438.609325556862 Q 261.75824175824164 438.609325556862 260.10989010989 438.609325556862 Q 258.46153846153834 438.609325556862 257.08791208791195 438.609325556862 Q 255.71428571428558 438.609325556862 254.06593406593396 438.609325556862 Q 252.4175824175823 438.609325556862 250.49450549450538 438.3346002821367 Q 248.57142857142844 438.0598750074114 246.9230769230768 437.78514973268614 Q 245.27472527472514 437.5104244579609 244.17582417582406 437.2356991832356 Q 243.07692307692295 436.96097390851037 241.7032967032966 436.4115233590598 Q 240.32967032967022 435.86207280960923 238.13186813186803 435.31262226015866 Q 235.9340659340658 434.7631717107081 234.28571428571416 434.2137211612576 Q 232.63736263736251 433.66427061180707 230.98901098901086 433.38954533708176 Q 229.34065934065922 433.11482006235644 227.96703296703285 432.8400947876312 Q 226.59340659340648 432.56536951290593 224.94505494505484 432.01591896345536 Q 223.29670329670319 431.4664684140048 221.09890109890097 430.9170178645543 Q 218.90109890109878 430.36756731510377 217.25274725274713 429.8181167656532 Q 215.60439560439548 429.26866621620263 214.2307692307691 428.71921566675206 Q 212.85714285714275 428.1697651173015 211.48351648351638 427.620314567851 Q 210.10989010989 427.07086401840047 207.63736263736251 425.97196291949933 Q 205.16483516483504 424.8730618205982 203.79120879120867 424.04888599642237 Q 202.4175824175823 423.22471017224655 201.04395604395592 422.4005343480707 Q 199.67032967032955 421.5763585238949 198.57142857142844 420.75218269971907 Q 197.47252747252736 419.92800687554325 196.37362637362625 419.1038310513674 Q 195.27472527472514 418.2796552271916 193.6263736263735 416.90602885356526 Q 191.97802197802187 415.5324024799389 190.87912087912076 414.7082266557631 Q 189.78021978021968 413.8840508315873 188.68131868131857 412.78514973268614 Q 187.58241758241746 411.68624863378506 186.75824175824164 410.86207280960923 Q 185.9340659340658 410.0378969854334 184.83516483516473 408.38954533708176 Q 183.73626373626362 406.7411936887301 182.9120879120878 405.9170178645543 Q 182.08791208791197 405.09284204037846 181.26373626373615 404.26866621620263 Q 180.43956043956032 403.4444903920268 179.89010989010978 402.3455892931257 Q 179.34065934065922 401.2466881942246 178.5164835164834 400.42251237004876 Q 177.69230769230757 399.59833654587294 177.14285714285703 398.7741607216971 Q 176.59340659340648 397.9499848975213 175.76923076923066 396.8510837986202 Q 174.94505494505484 395.7521826997191 174.3956043956043 395.20273215026856 Q 173.84615384615375 394.653281600818 173.29670329670319 394.1038310513675 Q 172.74725274725262 393.5543805019169 171.9230769230768 392.7302046777411 Q 171.09890109890097 391.90602885356526 170.8241758241757 391.3565783041147 Q 170.54945054945046 390.8071277546642 169.9999999999999 390.2576772052136 Q 169.45054945054935 389.70822665576304 169.17582417582406 389.15877610631253 Q 168.9010989010988 388.60932555686196 168.62637362637352 388.33460028213665 Q 168.35164835164824 388.0598750074114 168.35164835164824 387.5104244579609 Q 168.35164835164824 386.9609739085103 168.07692307692298 386.41152335905974 Q 167.8021978021977 385.86207280960923 167.5274725274724 385.587347534884 Q 167.25274725274716 385.3126222601587 166.97802197802187 384.76317171070815 Q 166.7032967032966 384.2137211612576 166.42857142857133 383.1148200623565 Q 166.15384615384605 382.0159189634554 165.87912087912076 381.1917431392796 Q 165.6043956043955 380.36756731510377 165.32967032967022 380.09284204037846 Q 165.05494505494494 379.81811676565314 165.05494505494494 379.26866621620263 Q 165.05494505494494 378.7192156667521 165.05494505494494 378.4444903920268 Q 165.05494505494494 378.1697651173015 164.78021978021968 377.89503984257624 Q 164.5054945054944 377.620314567851 164.2307692307691 376.79613874367516 Q 163.95604395604386 375.97196291949933 163.95604395604386 375.42251237004876 Q 163.95604395604386 374.8730618205982 163.95604395604386 374.59833654587294 Q 163.95604395604386 374.3236112711477 163.68131868131857 373.77416072169717 Q 163.4065934065933 373.2247101722466 163.4065934065933 372.67525962279603 Q 163.4065934065933 372.1258090733455 163.4065934065933 371.85108379862027 Q 163.4065934065933 371.57635852389495 163.4065934065933 371.30163324916964 Q 163.4065934065933 371.0269079744444 163.13186813186803 370.4774574249939 Q 162.85714285714275 369.9280068755433 162.85714285714275 369.653281600818 Q 162.85714285714275 369.37855632609273 162.85714285714275 369.1038310513675 Q 162.85714285714275 368.8291057766422 162.85714285714275 368.55438050191697 Q 162.85714285714275 368.27965522719165 162.85714285714275 367.7302046777411 Q 162.85714285714275 367.1807541282906 162.85714285714275 366.9060288535653 Q 162.85714285714275 366.63130357884 162.85714285714275 366.3565783041147 Q 162.85714285714275 366.08185302938944 162.58241758241746 365.8071277546642 Q 162.3076923076922 365.5324024799389 162.03296703296692 364.7082266557631 L 161.75424175824165 363.88005083158725" stroke-linecap="round" />
</g>
		<g transform="matrix(0.67 0 0 0.67 110.12 -17.26)" id="gh3R3621KnL-lQETy4URn"  >
<path style="stroke: rgb(41,60,219); stroke-width: 4; stroke-dasharray: none; stroke-linecap: round; stroke-dashoffset: 0; stroke-linejoin: round; stroke-miterlimit: 10; fill: none; fill-rule: nonzero; opacity: 1;" transform=" translate(-469.21, -287.66)" d="M 444.40544881889747 241.94007284526666 Q 444.4094488188975 241.94407284526665 444.4094488188975 241.55037205786505 Q 444.4094488188975 241.15667127046348 444.8031496062991 241.55037205786505 Q 445.1968503937007 241.94407284526665 445.5905511811022 242.33777363266822 Q 445.98425196850377 242.7314744200698 446.37795275590537 243.91257678227453 Q 446.77165354330697 245.09367914447924 447.1653543307085 245.88108071928238 Q 447.55905511811005 246.66848229408552 448.34645669291325 247.4558838688887 Q 449.13385826771645 248.24328544369183 449.527559055118 249.03068701849497 Q 449.92125984251953 249.81808859329814 450.7086614173227 251.39289174290445 Q 451.4960629921258 252.96769489251074 451.8897637795274 253.75509646731388 Q 452.283464566929 254.54249804211702 453.07086614173215 255.3298996169202 Q 453.8582677165353 256.11730119172336 454.2519685039369 257.2984035539281 Q 454.6456692913385 258.4795059161328 455.03937007874003 259.266907490936 Q 455.4330708661416 260.0543090657391 456.2204724409447 261.6291122153454 Q 457.00787401574786 263.2039153649517 457.795275590551 263.9913169397548 Q 458.58267716535414 264.77871851455797 458.97637795275574 265.9598208767627 Q 459.37007874015734 267.14092323896745 459.76377952755894 267.9283248137706 Q 460.15748031496054 268.7157263885737 460.5511811023621 269.89682875077847 Q 460.9448818897636 271.07793111298315 461.73228346456676 271.86533268778635 Q 462.5196850393699 272.6527342625895 462.9133858267715 273.44013583739263 Q 463.3070866141731 274.2275374121958 463.70078740157464 275.4086397744005 Q 464.0944881889762 276.5897421366052 464.4881889763778 277.3771437114084 Q 464.8818897637794 278.16454528621153 465.275590551181 279.3456476484163 Q 465.6692913385826 280.52675001062096 466.0629921259841 281.3141515854241 Q 466.45669291338567 282.10155316022724 466.45669291338567 282.88895473503044 Q 466.45669291338567 283.6763563098336 466.85039370078727 284.0700570972351 Q 467.24409448818886 284.4637578846367 467.24409448818886 285.25115945943986 Q 467.24409448818886 286.038561034243 467.6377952755904 286.8259626090462 Q 468.03149606299195 287.61336418384934 468.03149606299195 288.0070649712509 Q 468.03149606299195 288.4007657586525 468.42519685039355 289.1881673334556 Q 468.81889763779515 289.97556890825877 468.81889763779515 290.36926969566036 Q 468.81889763779515 290.7629704830619 469.2125984251967 291.94407284526665 Q 469.60629921259823 293.1251752074714 469.99999999999983 293.9125767822745 Q 470.39370078740143 294.69997835707767 470.787401574803 295.0936791444792 Q 471.1811023622046 295.4873799318808 471.1811023622046 296.27478150668395 Q 471.1811023622046 297.0621830814871 471.57480314960617 298.24328544369183 Q 471.9685039370077 299.4243878058966 472.3622047244093 300.2117893806997 Q 472.7559055118109 300.99919095550285 473.14960629921245 302.1802933177076 Q 473.543307086614 303.36139567991233 473.9370078740156 304.1487972547155 Q 474.3307086614172 304.9361988295186 474.72440944881873 305.72360040432176 Q 475.1181102362203 306.5110019791249 475.5118110236219 308.0858051287312 Q 475.9055118110235 309.6606082783375 476.2992125984251 310.44800985314066 Q 476.69291338582667 311.2354114279438 477.0866141732282 312.02281300274694 Q 477.48031496062976 312.8102145775501 478.2677165354329 313.5976161523532 Q 479.05511811023604 314.3850177271564 479.84251968503924 315.5661200893611 Q 480.62992125984243 316.74722245156585 481.023622047244 317.1409232389674 Q 481.4173228346455 317.534624026369 481.8110236220471 318.3220256011722 Q 482.2047244094487 319.1094271759753 482.99212598425186 319.89682875077847 Q 483.779527559055 320.6842303255816 484.56692913385814 321.07793111298315 Q 485.3543307086613 321.47163190038475 485.3543307086613 321.86533268778635 Q 485.3543307086613 322.2590334751879 486.535433070866 322.65273426258943 Q 487.71653543307076 323.04643504999103 488.5039370078739 323.04643504999103 Q 489.29133858267704 323.04643504999103 490.0787401574802 323.04643504999103 Q 490.8661417322833 323.04643504999103 491.65354330708647 323.44013583739263 Q 492.4409448818896 323.8338366247942 493.22834645669275 323.8338366247942 Q 494.0157480314959 323.8338366247942 494.4094488188975 323.44013583739263 Q 494.8031496062991 323.04643504999103 495.5905511811022 322.65273426258943 Q 496.37795275590537 322.2590334751879 497.1653543307085 321.86533268778635 Q 497.95275590551165 321.47163190038475 498.7401574803148 320.29052953818007 Q 499.52755905511793 319.1094271759753 499.92125984251953 318.3220256011722 Q 500.31496062992113 317.534624026369 500.7086614173227 316.74722245156585 Q 501.1023622047242 315.9598208767627 501.1023622047242 315.17241930195956 Q 501.1023622047242 314.3850177271564 501.1023622047242 313.2039153649517 Q 501.1023622047242 312.02281300274694 501.1023622047242 310.44800985314066 Q 501.1023622047242 308.8732067035344 501.1023622047242 308.0858051287312 Q 501.1023622047242 307.29840355392804 501.1023622047242 306.1173011917233 Q 501.1023622047242 304.9361988295186 500.7086614173227 303.7550964673139 Q 500.31496062992113 302.57399410510914 499.527559055118 300.99919095550285 Q 498.74015748031485 299.4243878058966 498.34645669291325 298.24328544369183 Q 497.95275590551165 297.0621830814871 497.95275590551165 296.27478150668395 Q 497.95275590551165 295.4873799318808 497.1653543307085 294.69997835707767 Q 496.37795275590537 293.9125767822745 495.98425196850377 292.7314744200698 Q 495.59055118110217 291.55037205786505 495.19685039370063 290.36926969566036 Q 494.8031496062991 289.1881673334556 494.01574803149595 288.4007657586525 Q 493.2283464566928 287.61336418384934 492.8346456692912 286.8259626090462 Q 492.4409448818896 286.038561034243 492.04724409448806 284.8574586720383 Q 491.6535433070865 283.6763563098336 490.4724409448818 282.49525394762884 Q 489.29133858267704 281.3141515854241 488.89763779527544 280.52675001062096 Q 488.50393700787384 279.7393484358178 487.7165354330707 278.9519468610147 Q 486.92913385826756 278.16454528621153 486.1417322834644 277.77084449881 Q 485.3543307086613 277.3771437114084 484.56692913385814 276.9834429240068 Q 483.779527559055 276.5897421366052 482.59842519685026 275.80234056180205 Q 481.4173228346455 275.0149389869989 480.6299212598424 274.6212381995973 Q 479.84251968503924 274.2275374121958 479.0551181102361 274.2275374121958 Q 478.26771653543295 274.2275374121958 477.4803149606298 273.83383662479423 Q 476.69291338582667 273.44013583739263 475.11811023622033 273.44013583739263 Q 473.543307086614 273.44013583739263 472.75590551181085 273.44013583739263 Q 471.9685039370077 273.44013583739263 470.78740157480297 273.44013583739263 Q 469.60629921259823 273.44013583739263 468.42519685039355 273.44013583739263 Q 467.24409448818886 273.44013583739263 466.0629921259841 273.83383662479423 Q 464.8818897637794 274.2275374121958 462.9133858267715 274.6212381995973 Q 460.9448818897636 275.0149389869989 459.7637795275589 275.4086397744005 Q 458.58267716535414 275.80234056180205 457.40157480314946 276.1960413492036 Q 456.2204724409448 276.5897421366052 455.43307086614163 276.9834429240068 Q 454.6456692913385 277.3771437114084 453.46456692913375 277.77084449881 Q 452.283464566929 278.16454528621153 451.1023622047243 278.9519468610147 Q 449.92125984251953 279.7393484358178 449.1338582677164 280.13304922321936 Q 448.34645669291325 280.52675001062096 447.5590551181101 281.3141515854241 Q 446.77165354330697 282.10155316022724 445.9842519685038 282.88895473503044 Q 445.1968503937007 283.6763563098336 444.01574803149595 284.8574586720383 Q 442.8346456692912 286.038561034243 442.4409448818896 286.4322618216446 Q 442.047244094488 286.82596260904614 441.25984251968487 288.4007657586525 Q 440.4724409448817 289.97556890825877 440.0787401574802 290.7629704830619 Q 439.68503937007864 291.55037205786505 438.89763779527544 293.51887599487293 Q 438.11023622047225 295.4873799318808 437.7165354330707 296.6684822940855 Q 437.32283464566916 297.84958465629023 437.32283464566916 299.4243878058966 Q 437.32283464566916 300.99919095550285 437.32283464566916 302.1802933177076 Q 437.32283464566916 303.36139567991233 437.32283464566916 304.1487972547155 Q 437.32283464566916 304.9361988295186 437.7165354330707 306.9047027665265 Q 438.11023622047225 308.8732067035344 438.50393700787384 310.05430906573906 Q 438.89763779527544 311.2354114279438 439.29133858267704 312.02281300274694 Q 439.68503937007864 312.8102145775501 440.0787401574802 313.9913169397548 Q 440.4724409448817 315.17241930195956 440.8661417322833 316.3535216641643 Q 441.2598425196849 317.534624026369 441.65354330708647 318.3220256011722 Q 442.047244094488 319.1094271759753 442.83464566929115 320.29052953818007 Q 443.6220472440943 321.47163190038475 444.4094488188975 322.2590334751879 Q 445.1968503937007 323.04643504999103 445.5905511811022 323.44013583739263 Q 445.98425196850377 323.8338366247942 446.7716535433069 324.6212381995973 Q 447.55905511811005 325.4086397744005 447.95275590551165 325.8023405618021 Q 448.34645669291325 326.19604134920365 449.1338582677164 326.9834429240068 Q 449.92125984251953 327.77084449880994 450.7086614173227 328.5582460736131 Q 451.4960629921258 329.3456476484163 452.28346456692896 329.7393484358179 Q 453.0708661417321 330.1330492232194 453.4645669291337 330.52675001062096 Q 453.8582677165353 330.92045079802256 454.64566929133844 331.31415158542416 Q 455.4330708661416 331.7078523728257 456.2204724409447 332.10155316022724 Q 457.00787401574786 332.49525394762884 457.795275590551 332.88895473503044 Q 458.58267716535414 333.282655522432 459.37007874015734 333.282655522432 Q 460.15748031496054 333.282655522432 460.9448818897637 333.6763563098335 Q 461.7322834645668 334.0700570972351 462.51968503936996 334.0700570972351 Q 463.3070866141731 334.0700570972351 464.09448818897624 334.0700570972351 Q 464.8818897637794 334.0700570972351 465.6692913385825 334.0700570972351 Q 466.45669291338567 334.0700570972351 467.2440944881888 334.0700570972351 Q 468.03149606299195 334.0700570972351 468.8188976377951 334.0700570972351 Q 469.60629921259823 334.0700570972351 470.39370078740143 333.6763563098335 Q 471.1811023622046 333.282655522432 471.57480314960617 333.282655522432 Q 471.9685039370077 333.282655522432 472.75590551181085 332.88895473503044 Q 473.543307086614 332.49525394762884 473.9370078740156 332.10155316022724 Q 474.3307086614172 331.7078523728257 474.72440944881873 331.7078523728257 Q 475.1181102362203 331.7078523728257 475.9055118110235 331.31415158542416 Q 476.69291338582667 330.92045079802256 477.0866141732282 330.52675001062096 Q 477.48031496062976 330.1330492232194 477.87401574803135 329.7393484358179 Q 478.26771653543295 329.3456476484163 478.6614173228345 328.9519468610147 Q 479.05511811023604 328.5582460736131 479.44881889763764 327.77084449880994 L 479.84651968503925 326.9794429240068" stroke-linecap="round" />
</g>
		<g transform="matrix(0.67 0 0 0.67 50.09 -12.51)" id="VUMU3YIeR_2zTBzroXC5v"  >
<path style="stroke: rgb(41,60,219); stroke-width: 4; stroke-dasharray: none; stroke-linecap: round; stroke-dashoffset: 0; stroke-linejoin: round; stroke-miterlimit: 10; fill: none; fill-rule: nonzero; opacity: 1;" transform=" translate(-380.24, -294.7)" d="M 327.87001574803134 298.64098623109345 Q 327.87401574803135 298.63698623109343 328.2677165354329 298.24328544369183 Q 328.6614173228345 297.84958465629023 329.0551181102361 297.4558838688887 Q 329.44881889763764 297.0621830814871 329.8425196850392 296.6684822940855 Q 330.2362204724408 296.27478150668395 330.6299212598424 295.8810807192824 Q 331.0236220472439 295.4873799318808 331.4173228346455 295.0936791444792 Q 331.8110236220471 294.69997835707767 332.20472440944866 294.69997835707767 Q 332.59842519685026 294.69997835707767 333.3858267716534 294.3062775696761 Q 334.17322834645654 293.9125767822745 334.56692913385814 293.9125767822745 Q 334.9606299212597 293.9125767822745 335.3543307086612 293.51887599487293 Q 335.7480314960628 293.1251752074714 336.1417322834644 293.1251752074714 Q 336.535433070866 293.1251752074714 336.9291338582676 293.1251752074714 Q 337.32283464566916 293.1251752074714 338.1102362204723 293.1251752074714 Q 338.89763779527544 293.1251752074714 339.291338582677 293.1251752074714 Q 339.6850393700786 293.1251752074714 340.0787401574802 293.1251752074714 Q 340.4724409448817 293.1251752074714 341.25984251968487 293.1251752074714 Q 342.04724409448806 293.1251752074714 342.44094488188966 293.1251752074714 Q 342.8346456692912 293.1251752074714 344.01574803149595 293.51887599487293 Q 345.19685039370063 293.9125767822745 345.5905511811022 293.9125767822745 Q 345.98425196850377 293.9125767822745 346.7716535433069 294.3062775696761 Q 347.5590551181101 294.69997835707767 347.9527559055117 295.0936791444792 Q 348.34645669291325 295.4873799318808 349.1338582677164 295.8810807192824 Q 349.92125984251953 296.27478150668395 350.3149606299211 296.6684822940855 Q 350.7086614173227 297.0621830814871 351.1023622047243 297.4558838688887 Q 351.4960629921258 297.84958465629023 352.28346456692896 297.84958465629023 Q 353.07086614173215 297.84958465629023 353.46456692913375 298.6369862310934 Q 353.8582677165353 299.4243878058966 354.25196850393684 299.81808859329817 Q 354.64566929133844 300.2117893806997 355.03937007874003 300.60549016810126 Q 355.4330708661416 300.99919095550285 355.8267716535431 301.39289174290445 Q 356.2204724409447 301.786592530306 356.6141732283463 302.18029331770754 Q 357.00787401574786 302.57399410510914 357.40157480314946 302.96769489251074 Q 357.79527559055106 303.36139567991233 358.1889763779526 303.75509646731393 Q 358.5826771653542 304.1487972547155 358.9763779527558 304.1487972547155 Q 359.37007874015734 304.1487972547155 359.37007874015734 304.542498042117 Q 359.37007874015734 304.9361988295186 359.7637795275589 304.9361988295186 Q 360.1574803149605 304.9361988295186 360.5511811023621 304.9361988295186 Q 360.9448818897636 304.9361988295186 361.33858267716516 304.9361988295186 Q 361.73228346456676 304.9361988295186 362.12598425196836 304.9361988295186 Q 362.5196850393699 304.9361988295186 363.30708661417304 304.9361988295186 Q 364.09448818897624 304.9361988295186 364.8818897637794 304.9361988295186 Q 365.6692913385825 304.9361988295186 366.45669291338567 304.9361988295186 Q 367.2440944881888 304.9361988295186 368.031496062992 304.9361988295186 Q 368.81889763779515 304.9361988295186 369.6062992125983 304.9361988295186 Q 370.39370078740143 304.9361988295186 371.96850393700777 304.9361988295186 Q 373.54330708661405 304.9361988295186 374.3307086614172 304.9361988295186 Q 375.11811023622033 304.9361988295186 375.9055118110235 304.9361988295186 Q 376.6929133858266 304.9361988295186 377.87401574803135 304.9361988295186 Q 379.0551181102361 304.9361988295186 379.4488188976377 304.9361988295186 Q 379.84251968503924 304.9361988295186 380.6299212598424 304.9361988295186 Q 381.4173228346455 304.9361988295186 382.20472440944866 304.9361988295186 Q 382.9921259842518 304.9361988295186 383.3858267716534 304.9361988295186 Q 383.779527559055 304.9361988295186 384.96062992125974 304.9361988295186 Q 386.1417322834644 304.9361988295186 386.92913385826756 304.9361988295186 Q 387.7165354330707 304.9361988295186 388.5039370078739 304.542498042117 Q 389.29133858267704 304.1487972547155 390.0787401574802 304.1487972547155 Q 390.8661417322833 304.1487972547155 391.65354330708647 304.1487972547155 Q 392.4409448818896 304.1487972547155 392.83464566929115 304.1487972547155 Q 393.22834645669275 304.1487972547155 394.01574803149595 304.1487972547155 Q 394.8031496062991 304.1487972547155 395.19685039370063 303.75509646731393 Q 395.5905511811022 303.36139567991233 395.9842519685038 303.36139567991233 Q 396.37795275590537 303.36139567991233 396.7716535433069 303.36139567991233 Q 397.1653543307085 303.36139567991233 397.95275590551165 303.36139567991233 Q 398.7401574803148 303.36139567991233 399.527559055118 303.36139567991233 Q 400.31496062992113 303.36139567991233 400.7086614173227 303.36139567991233 Q 401.1023622047243 303.36139567991233 401.8897637795274 302.96769489251074 Q 402.67716535433055 302.57399410510914 403.07086614173215 302.57399410510914 Q 403.4645669291337 302.57399410510914 403.85826771653524 302.57399410510914 Q 404.25196850393684 302.57399410510914 404.64566929133844 302.18029331770754 Q 405.03937007874003 301.786592530306 405.43307086614163 301.786592530306 Q 405.8267716535432 301.786592530306 406.2204724409447 300.99919095550285 Q 406.6141732283463 300.2117893806997 407.0078740157479 299.81808859329817 Q 407.40157480314946 299.4243878058966 408.1889763779526 298.6369862310934 Q 408.97637795275574 297.84958465629023 409.3700787401573 297.0621830814871 Q 409.7637795275589 296.27478150668395 410.5511811023621 295.4873799318808 Q 411.3385826771652 294.69997835707767 412.12598425196836 294.3062775696761 Q 412.9133858267715 293.9125767822745 413.30708661417304 293.12517520747133 Q 413.70078740157464 292.3377736326682 414.09448818897624 291.94407284526665 Q 414.4881889763778 291.55037205786505 414.8818897637794 291.15667127046345 Q 415.275590551181 290.7629704830619 416.0629921259841 290.36926969566036 Q 416.85039370078727 289.97556890825877 417.2440944881888 289.58186812085717 Q 417.6377952755904 289.1881673334556 418.42519685039355 288.7944665460541 Q 419.2125984251967 288.4007657586525 419.9999999999999 287.6133641838493 Q 420.787401574803 286.82596260904614 421.18110236220457 286.82596260904614 Q 421.57480314960617 286.82596260904614 421.96850393700777 286.4322618216446 Q 422.3622047244093 286.038561034243 422.75590551181085 286.038561034243 Q 423.14960629921245 286.038561034243 423.54330708661405 285.6448602468414 Q 423.9370078740156 285.25115945943986 424.33070866141713 285.25115945943986 Q 424.72440944881873 285.25115945943986 425.11811023622033 284.8574586720383 Q 425.5118110236219 284.4637578846367 425.9055118110235 284.4637578846367 Q 426.2992125984251 284.4637578846367 426.6929133858266 284.4637578846367 Q 427.0866141732282 284.4637578846367 427.4803149606298 284.4637578846367 Q 427.87401574803135 284.4637578846367 428.2677165354329 284.4637578846367 Q 428.6614173228345 284.4637578846367 429.0551181102361 284.4637578846367 Q 429.44881889763764 284.4637578846367 429.8425196850392 284.4637578846367 Q 430.2362204724408 284.4637578846367 430.6299212598424 284.4637578846367 Q 431.023622047244 284.4637578846367 431.8110236220471 284.4637578846367 L 432.6024251968503 284.4637578846367" stroke-linecap="round" />
</g>
		<g transform="matrix(0.67 0 0 0.67 69.43 50.21)" id="kWx0y1AuWt4kLkjf9Ug7e"  >
<path style="stroke: rgb(41,60,219); stroke-width: 4; stroke-dasharray: none; stroke-linecap: round; stroke-dashoffset: 0; stroke-linejoin: round; stroke-miterlimit: 10; fill: none; fill-rule: nonzero; opacity: 1;" transform=" translate(0, 0)" d="M -75.98625 31.49206 C -75.98358 31.494729999999997 -75.85101999999999 31.49606 -75.58855 31.49606 C -75.32608 31.49606 -75.06362 31.62729 -74.80114999999999 31.88976 C -74.53868 32.152229999999996 -74.27622 32.54593 -74.01374999999999 33.070859999999996 C -73.75128 33.595789999999994 -73.48881999999999 33.9895 -73.22634999999998 34.25196 C -72.96387999999999 34.51443 -72.43894999999998 34.90813 -71.65154999999999 35.43306 C -70.86414999999998 35.957989999999995 -70.20797999999999 36.3517 -69.68304999999998 36.61416 C -69.15811999999998 36.87663 -68.37070999999997 37.27033 -67.32084999999998 37.79526 C -66.27097999999998 38.32019 -65.35234999999997 38.84513 -64.56493999999998 39.37006 C -63.77753999999998 39.89499 -62.990139999999975 40.288700000000006 -62.20273999999998 40.55116 C -61.41533999999998 40.81363 -60.36546999999998 41.207330000000006 -59.053129999999975 41.732260000000004 C -57.740789999999976 42.25719 -56.559689999999975 42.65090000000001 -55.509819999999976 42.913360000000004 C -54.45994999999998 43.175830000000005 -53.54131999999998 43.43829 -52.753909999999976 43.70076 C -51.96650999999998 43.96323 -51.047869999999975 44.22569 -49.997999999999976 44.48816 C -48.94812999999998 44.75063 -47.89825999999998 44.88186 -46.848389999999974 44.88186 C -45.798519999999975 44.88186 -44.48618999999997 45.013090000000005 -42.91137999999997 45.275560000000006 C -41.33657999999997 45.538030000000006 -40.02423999999997 45.80049 -38.97436999999997 46.062960000000004 C -37.92449999999997 46.325430000000004 -36.874629999999975 46.45666000000001 -35.82475999999997 46.45666000000001 C -34.77488999999997 46.45666000000001 -33.46255999999997 46.58789000000001 -31.88774999999997 46.85036000000001 C -30.31294999999997 47.11283000000001 -29.00060999999997 47.24406000000001 -27.950739999999968 47.24406000000001 C -26.90086999999997 47.24406000000001 -25.71976999999997 47.24406000000001 -24.40742999999997 47.24406000000001 C -23.09508999999997 47.24406000000001 -21.91398999999997 47.24406000000001 -20.86411999999997 47.24406000000001 C -19.814249999999973 47.24406000000001 -18.76437999999997 47.24406000000001 -17.714509999999972 47.24406000000001 C -16.664639999999974 47.24406000000001 -15.352309999999973 47.24406000000001 -13.777499999999971 47.24406000000001 C -12.202699999999972 47.24406000000001 -11.152829999999971 47.24406000000001 -10.627889999999972 47.24406000000001 C -10.102959999999973 47.24406000000001 -9.053089999999973 47.11283000000001 -7.478279999999972 46.85036000000001 C -5.9034799999999725 46.58789000000001 -4.722369999999972 46.45666000000001 -3.9349699999999723 46.45666000000001 C -3.1475699999999724 46.45666000000001 -2.2289299999999725 46.325430000000004 -1.1790599999999722 46.062960000000004 C -0.12918999999997216 45.80049 0.7894400000000277 45.66926 1.5768500000000278 45.66926 C 2.3642500000000277 45.66926 3.2828900000000276 45.53803 4.332760000000028 45.27556 C 5.382630000000028 45.01309 6.301260000000028 44.881859999999996 7.088670000000028 44.881859999999996 C 7.876070000000028 44.881859999999996 8.794710000000029 44.750629999999994 9.844580000000029 44.48815999999999 C 10.89445000000003 44.22568999999999 12.075550000000028 43.963229999999996 13.387890000000029 43.700759999999995 C 14.70023000000003 43.438289999999995 15.750090000000029 43.17583 16.53750000000003 42.91336 C 17.32490000000003 42.65089 18.24354000000003 42.257189999999994 19.29341000000003 41.73226 C 20.34328000000003 41.20733 21.26191000000003 40.81361999999999 22.04932000000003 40.551159999999996 C 22.83672000000003 40.288689999999995 23.62412000000003 40.02623 24.41152000000003 39.76376 C 25.198920000000033 39.50129 25.98632000000003 39.107589999999995 26.773720000000033 38.58266 C 27.561120000000034 38.05773 28.479760000000034 37.53279 29.529630000000033 37.007859999999994 C 30.57950000000003 36.482929999999996 31.49813000000003 35.957989999999995 32.28554000000003 35.43305999999999 C 33.07294000000003 34.90812999999999 33.860340000000036 34.38318999999999 34.647740000000034 33.85825999999999 C 35.43514000000003 33.33332999999999 36.22254000000004 32.80838999999999 37.009940000000036 32.283459999999984 C 37.797340000000034 31.758529999999983 38.71598000000004 31.102359999999983 39.765850000000036 30.314959999999985 C 40.815720000000034 29.527559999999983 41.734350000000035 28.871389999999984 42.521760000000036 28.346459999999986 C 43.309160000000034 27.821529999999985 43.96533000000004 27.296589999999988 44.490260000000035 26.771659999999986 C 45.01519000000003 26.246729999999985 45.802600000000034 25.721789999999988 46.852460000000036 25.196859999999987 C 47.902330000000035 24.671929999999985 48.55850000000004 24.278219999999987 48.820960000000035 24.015759999999986 C 49.083430000000035 23.753289999999986 49.60836000000003 23.228359999999984 50.39576000000004 22.440959999999986 C 51.183160000000036 21.653559999999985 51.83933000000004 20.997389999999985 52.36426000000004 20.472459999999987 C 52.889190000000035 19.947529999999986 53.54536000000004 19.42258999999999 54.332760000000036 18.897659999999988 C 55.120160000000034 18.372729999999986 56.03880000000004 17.58531999999999 57.088670000000036 16.535459999999986 C 58.138540000000035 15.485589999999986 58.79471000000004 14.829419999999987 59.057170000000035 14.566959999999986 C 59.319640000000035 14.304489999999985 59.97581000000004 13.779559999999986 61.025670000000034 12.992159999999986 C 62.07554000000003 12.204759999999986 62.86294000000003 11.548589999999987 63.387870000000035 11.023659999999985 C 63.91280000000003 10.498729999999986 64.30651000000003 9.973789999999985 64.56897000000004 9.448859999999986 C 64.83144000000003 8.923929999999986 65.22514000000004 8.267759999999985 65.75007000000004 7.480359999999986 C 66.27500000000003 6.692959999999986 66.79994000000003 5.905559999999986 67.32487000000003 5.118159999999985 C 67.84980000000003 4.3307599999999855 68.24351000000003 3.5433599999999856 68.50597000000003 2.7559599999999853 C 68.76844000000003 1.9685599999999854 69.16214000000004 1.1811599999999853 69.68707000000003 0.39375999999998523 C 70.21200000000003 -0.39364000000001476 70.60571000000003 -1.1810400000000147 70.86817000000003 -1.9684400000000148 C 71.13064000000003 -2.7558400000000147 71.52434000000004 -3.674480000000015 72.04927000000004 -4.724350000000015 C 72.57420000000003 -5.774220000000016 72.96791000000003 -6.5616200000000156 73.23037000000004 -7.086550000000015 C 73.49284000000003 -7.611480000000015 73.62407000000003 -8.136420000000015 73.62407000000003 -8.661350000000015 C 73.62407000000003 -9.186280000000014 73.75530000000003 -9.711220000000015 74.01777000000003 -10.236150000000015 C 74.28024000000002 -10.761080000000014 74.41147000000002 -11.417250000000015 74.41147000000002 -12.204650000000015 C 74.41147000000002 -12.992050000000015 74.41147000000002 -13.779450000000015 74.41147000000002 -14.566850000000015 C 74.41147000000002 -15.354250000000015 74.54270000000002 -16.010420000000014 74.80517000000002 -16.535350000000015 C 75.06764000000001 -17.060280000000017 75.19887000000001 -17.585220000000014 75.19887000000001 -18.110150000000015 C 75.19887000000001 -18.635080000000016 75.19887000000001 -19.160020000000014 75.19887000000001 -19.684950000000015 C 75.19887000000001 -20.209880000000016 75.19887000000001 -20.734820000000013 75.19887000000001 -21.259750000000015 C 75.19887000000001 -21.784680000000016 75.33010000000002 -22.440850000000015 75.59257000000001 -23.228250000000013 C 75.85504 -24.015650000000015 75.98627 -24.803050000000013 75.98627 -25.590450000000015 C 75.98627 -26.377850000000016 75.98627 -26.902790000000014 75.98627 -27.165250000000015 C 75.98627 -27.427720000000015 75.98627 -27.821420000000014 75.98627 -28.346350000000015 C 75.98627 -28.871280000000016 75.98627 -29.527450000000016 75.98627 -30.314850000000014 C 75.98627 -31.102250000000016 75.98627 -31.758420000000015 75.98627 -32.28335000000001 C 75.98627 -32.80828000000001 75.98627 -33.33322000000001 75.98627 -33.858150000000016 C 75.98627 -34.383080000000014 75.98627 -34.908020000000015 75.98627 -35.43295000000002 C 75.98627 -35.95788000000002 75.98627 -36.48282000000002 75.98627 -37.00775000000002 C 75.98627 -37.53268000000002 75.98627 -37.926390000000026 75.98627 -38.18885000000002 C 75.98627 -38.451320000000024 75.98627 -38.84502000000003 75.98627 -39.369950000000024 C 75.98627 -39.89488000000002 75.98627 -40.28859000000003 75.98627 -40.551050000000025 C 75.98627 -40.813520000000025 75.98627 -41.20722000000003 75.98627 -41.732150000000026 C 75.98627 -42.25708000000002 75.98627 -42.65079000000003 75.98627 -42.913250000000026 C 75.98627 -43.17572000000003 75.98627 -43.56942000000003 75.98627 -44.09435000000003 C 75.98627 -44.619280000000025 75.98627 -45.144220000000026 75.98627 -45.66915000000003 C 75.98627 -46.19408000000003 75.98627 -46.587790000000034 75.98627 -46.85025000000003 C 75.98627 -47.11272000000003 75.72380000000001 -47.243950000000034 75.19887 -47.243950000000034 L 74.40747 -47.243950000000034" stroke-linecap="round" />
</g>
		<g transform="matrix(0.67 0 0 0.67 3.62 29.98)" id="G1ThRZzTKZ2f8M2qFLgWN"  >
<path style="stroke: rgb(41,60,219); stroke-width: 4; stroke-dasharray: none; stroke-linecap: round; stroke-dashoffset: 0; stroke-linejoin: round; stroke-miterlimit: 10; fill: none; fill-rule: nonzero; opacity: 1;" transform=" translate(-311.34, -357.69)" d="M 315.2755905511809 315.9558208767627 Q 315.2755905511809 315.9598208767627 314.8818897637793 315.9598208767627 Q 314.4881889763778 315.9598208767627 314.4881889763778 316.3535216641643 Q 314.4881889763778 316.74722245156585 314.09448818897624 317.1409232389674 Q 313.70078740157464 317.534624026369 313.30708661417304 318.3220256011722 Q 312.9133858267715 319.1094271759753 312.9133858267715 319.50312796337687 Q 312.9133858267715 319.89682875077847 312.51968503936996 320.6842303255816 Q 312.12598425196836 321.47163190038475 311.73228346456676 322.65273426258943 Q 311.3385826771652 323.8338366247942 310.9448818897637 324.2275374121958 Q 310.5511811023621 324.62123819959737 310.1574803149605 325.4086397744005 Q 309.7637795275589 326.19604134920365 309.7637795275589 327.3771437114084 Q 309.7637795275589 328.5582460736131 309.3700787401573 329.3456476484163 Q 308.97637795275574 330.1330492232194 308.97637795275574 330.92045079802256 Q 308.97637795275574 331.7078523728257 308.97637795275574 333.28265552243204 Q 308.97637795275574 334.8574586720383 308.5826771653542 336.038561034243 Q 308.1889763779526 337.21966339644774 308.1889763779526 338.0070649712509 Q 308.1889763779526 338.794466546054 308.1889763779526 339.58186812085717 Q 308.1889763779526 340.36926969566036 307.795275590551 341.94407284526665 Q 307.40157480314946 343.51887599487293 307.40157480314946 344.69997835707767 Q 307.40157480314946 345.8810807192824 307.40157480314946 347.0621830814871 Q 307.40157480314946 348.24328544369183 307.40157480314946 349.4243878058966 Q 307.40157480314946 350.6054901681013 307.40157480314946 351.39289174290445 Q 307.40157480314946 352.1802933177076 307.40157480314946 353.7550964673139 Q 307.40157480314946 355.32989961692016 307.40157480314946 356.5110019791249 Q 307.40157480314946 357.69210434132964 307.40157480314946 358.8732067035344 Q 307.40157480314946 360.05430906573906 307.40157480314946 361.2354114279438 Q 307.40157480314946 362.41651379014854 307.795275590551 363.9913169397548 Q 308.1889763779526 365.5661200893611 308.1889763779526 366.3535216641643 Q 308.1889763779526 367.14092323896745 308.1889763779526 367.9283248137706 Q 308.1889763779526 368.7157263885737 308.5826771653542 369.89682875077847 Q 308.97637795275574 371.07793111298315 308.97637795275574 371.86533268778635 Q 308.97637795275574 372.6527342625895 308.97637795275574 373.83383662479423 Q 308.97637795275574 375.0149389869989 309.3700787401573 375.8023405618021 Q 309.7637795275589 376.58974213660525 309.7637795275589 377.77084449881 Q 309.7637795275589 378.9519468610147 309.7637795275589 379.7393484358178 Q 309.7637795275589 380.52675001062096 310.1574803149605 382.10155316022724 Q 310.5511811023621 383.6763563098336 310.5511811023621 384.4637578846367 Q 310.5511811023621 385.25115945943986 310.5511811023621 386.4322618216446 Q 310.5511811023621 387.61336418384934 310.9448818897637 388.4007657586525 Q 311.3385826771652 389.1881673334556 311.73228346456676 390.36926969566036 Q 312.12598425196836 391.55037205786505 312.12598425196836 392.7314744200698 Q 312.12598425196836 393.9125767822745 312.51968503936996 394.3062775696761 Q 312.9133858267715 394.69997835707767 312.9133858267715 395.0936791444792 Q 312.9133858267715 395.4873799318808 313.30708661417304 396.27478150668395 Q 313.70078740157464 397.0621830814871 314.09448818897624 397.4558838688887 Q 314.4881889763778 397.8495846562903 314.8818897637793 398.63698623109343 L 315.27959055118095 399.4283878058966" stroke-linecap="round" />
</g>
		<g transform="matrix(0.67 0 0 0.67 34.69 21.48)" id="izmVdKq_IFxvmRR3QgDQY"  >
<path style="stroke: rgb(41,60,219); stroke-width: 4; stroke-dasharray: none; stroke-linecap: round; stroke-dashoffset: 0; stroke-linejoin: round; stroke-miterlimit: 10; fill: none; fill-rule: nonzero; opacity: 1;" transform=" translate(-357.4, -345.09)" d="M 349.1298582677164 345.09367914447927 Q 349.1338582677164 345.09367914447927 349.92125984251953 345.4873799318808 Q 350.7086614173227 345.8810807192824 351.1023622047243 345.8810807192824 Q 351.4960629921258 345.8810807192824 352.28346456692896 346.274781506684 Q 353.07086614173215 346.66848229408555 353.46456692913375 346.66848229408555 Q 353.8582677165353 346.66848229408555 354.64566929133844 346.66848229408555 Q 355.4330708661416 346.66848229408555 356.2204724409447 346.66848229408555 Q 357.00787401574786 346.66848229408555 357.40157480314946 346.66848229408555 Q 357.79527559055106 346.66848229408555 358.5826771653542 346.66848229408555 Q 359.37007874015734 346.66848229408555 360.1574803149605 346.274781506684 Q 360.9448818897636 345.8810807192824 361.73228346456676 345.4873799318808 Q 362.5196850393699 345.09367914447927 362.9133858267715 344.69997835707767 Q 363.3070866141731 344.30627756967607 363.70078740157464 344.30627756967607 Q 364.09448818897624 344.30627756967607 364.09448818897624 343.9125767822745 Q 364.09448818897624 343.51887599487293 364.8818897637794 343.51887599487293 L 365.67329133858254 343.51887599487293" stroke-linecap="round" />
</g>
		<g transform="matrix(0.67 0 0 0.67 78.25 16.7)" id="KIh2pInA0D_jQT3G2QVzz"  >
<path style="stroke: rgb(41,60,219); stroke-width: 4; stroke-dasharray: none; stroke-linecap: round; stroke-dashoffset: 0; stroke-linejoin: round; stroke-miterlimit: 10; fill: none; fill-rule: nonzero; opacity: 1;" transform=" translate(-421.97, -338.01)" d="M 411.3345826771652 336.4282618216446 Q 411.3385826771652 336.4322618216446 411.3385826771652 336.8259626090462 Q 411.3385826771652 337.21966339644774 411.73228346456676 337.6133641838493 Q 412.12598425196836 338.0070649712509 412.51968503936996 338.0070649712509 Q 412.9133858267715 338.0070649712509 413.70078740157464 338.4007657586525 Q 414.4881889763778 338.794466546054 415.2755905511809 339.18816733345557 Q 416.0629921259841 339.58186812085717 416.85039370078727 339.58186812085717 Q 417.6377952755904 339.58186812085717 418.8188976377951 339.58186812085717 Q 419.99999999999983 339.58186812085717 420.78740157480297 339.58186812085717 Q 421.57480314960617 339.58186812085717 422.75590551181085 339.58186812085717 Q 423.9370078740156 339.58186812085717 424.72440944881873 339.58186812085717 Q 425.5118110236219 339.58186812085717 426.299212598425 339.58186812085717 Q 427.0866141732282 339.58186812085717 427.4803149606298 339.18816733345557 Q 427.87401574803135 338.794466546054 428.6614173228345 338.794466546054 Q 429.44881889763764 338.794466546054 429.8425196850392 338.794466546054 Q 430.2362204724408 338.794466546054 430.6299212598424 338.4007657586525 Q 431.023622047244 338.0070649712509 431.8110236220471 338.0070649712509 L 432.6024251968503 338.0070649712509" stroke-linecap="round" />
</g>
		<g transform="matrix(0.67 0 0 0.67 53.32 26.53)" id="ETr9T693PYOk6dBjjSJir"  >
<path style="stroke: rgb(41,60,219); stroke-width: 4; stroke-dasharray: none; stroke-linecap: round; stroke-dashoffset: 0; stroke-linejoin: round; stroke-miterlimit: 10; fill: none; fill-rule: nonzero; opacity: 1;" transform=" translate(-385.01, -352.57)" d="M 380.62592125984236 352.96769489251074 Q 380.6299212598424 352.96769489251074 380.2362204724408 352.96769489251074 Q 379.84251968503924 352.96769489251074 380.2362204724408 352.96769489251074 Q 380.6299212598424 352.96769489251074 381.023622047244 353.36139567991233 Q 381.4173228346455 353.7550964673139 382.20472440944866 354.1487972547154 Q 382.9921259842518 354.542498042117 383.77952755905494 354.542498042117 Q 384.56692913385814 354.542498042117 385.3543307086613 354.542498042117 Q 386.1417322834644 354.542498042117 387.3228346456691 354.1487972547154 Q 388.50393700787384 353.7550964673139 388.89763779527544 353.36139567991233 Q 389.29133858267704 352.96769489251074 389.6850393700786 352.96769489251074 Q 390.0787401574802 352.96769489251074 390.0787401574802 352.57399410510914 Q 390.0787401574802 352.1802933177076 390.0787401574802 351.78659253030605 Q 390.0787401574802 351.39289174290445 389.6850393700786 350.99919095550285 Q 389.29133858267704 350.6054901681013 388.89763779527544 350.6054901681013 Q 388.50393700787384 350.6054901681013 388.1102362204723 350.6054901681013 Q 387.7165354330707 350.6054901681013 386.535433070866 350.6054901681013 Q 385.3543307086613 350.6054901681013 384.17322834645654 350.99919095550285 L 382.9881259842518 351.3968917429045" stroke-linecap="round" />
</g>
		<g transform="matrix(0.67 0 0 0.67 55.14 35.86)" id="5wzV8UQQ70kHTyy7j1nDm"  >
<path style="stroke: rgb(41,60,219); stroke-width: 4; stroke-dasharray: none; stroke-linecap: round; stroke-dashoffset: 0; stroke-linejoin: round; stroke-miterlimit: 10; fill: none; fill-rule: nonzero; opacity: 1;" transform=" translate(-387.72, -366.4)" d="M 370.3897007874014 371.07393111298313 Q 370.39370078740143 371.07793111298315 370.78740157480297 371.47163190038475 Q 371.18110236220457 371.86533268778635 371.57480314960617 372.25903347518795 Q 371.9685039370077 372.6527342625895 372.75590551181085 372.6527342625895 Q 373.54330708661405 372.6527342625895 374.3307086614172 372.6527342625895 Q 375.11811023622033 372.6527342625895 375.51181102362193 372.6527342625895 Q 375.9055118110235 372.6527342625895 376.6929133858266 372.25903347518795 Q 377.48031496062976 371.86533268778635 377.8740157480313 371.47163190038475 Q 378.2677165354329 371.07793111298315 379.0551181102361 370.29052953818 Q 379.84251968503924 369.50312796337687 380.6299212598424 368.7157263885737 Q 381.4173228346455 367.9283248137706 381.81102362204706 367.534624026369 Q 382.20472440944866 367.14092323896745 382.59842519685026 366.3535216641643 Q 382.9921259842518 365.5661200893611 382.9921259842518 365.1724193019595 Q 382.9921259842518 364.77871851455797 383.3858267716534 364.3850177271564 Q 383.779527559055 363.9913169397548 384.17322834645654 363.2039153649517 Q 384.56692913385814 362.41651379014854 384.56692913385814 362.02281300274694 Q 384.56692913385814 361.6291122153454 384.56692913385814 361.23541142794386 Q 384.56692913385814 360.84171064054226 384.96062992125974 360.84171064054226 Q 385.3543307086613 360.84171064054226 385.3543307086613 360.44800985314066 Q 385.3543307086613 360.05430906573906 385.3543307086613 360.44800985314066 Q 385.3543307086613 360.84171064054226 385.3543307086613 361.23541142794386 Q 385.3543307086613 361.6291122153454 385.7480314960628 362.02281300274694 Q 386.1417322834644 362.41651379014854 386.1417322834644 363.2039153649517 Q 386.1417322834644 363.9913169397548 386.535433070866 364.77871851455797 Q 386.92913385826756 365.5661200893611 387.7165354330707 366.3535216641643 Q 388.50393700787384 367.14092323896745 388.89763779527544 367.9283248137706 Q 389.29133858267704 368.7157263885737 389.6850393700786 369.50312796337687 Q 390.0787401574802 370.29052953818 390.8661417322833 370.68423032558155 Q 391.65354330708647 371.07793111298315 392.4409448818896 371.47163190038475 Q 393.22834645669275 371.86533268778635 394.4094488188975 371.86533268778635 Q 395.5905511811022 371.86533268778635 396.7716535433069 372.25903347518795 Q 397.95275590551165 372.6527342625895 398.7401574803148 372.6527342625895 Q 399.527559055118 372.6527342625895 400.31496062992113 372.25903347518795 Q 401.1023622047243 371.86533268778635 401.8897637795274 371.47163190038475 Q 402.67716535433055 371.07793111298315 403.8582677165353 370.68423032558155 L 405.04337007874005 370.28652953818" stroke-linecap="round" />
</g>
		<g transform="matrix(0.67 0 0 0.67 -48.17 18.03)" id="DtKORQfS3a0CSN2IwdzzL"  >
<path style="stroke: rgb(41,60,219); stroke-width: 4; stroke-dasharray: none; stroke-linecap: round; stroke-dashoffset: 0; stroke-linejoin: round; stroke-miterlimit: 10; fill: none; fill-rule: nonzero; opacity: 1;" transform=" translate(-234.57, -339.97)" d="M 225.50781102362188 338.00306497125086 Q 225.51181102362187 338.0070649712509 226.29921259842504 338.794466546054 Q 227.0866141732282 339.58186812085717 227.87401574803135 339.97556890825877 Q 228.6614173228345 340.36926969566036 229.44881889763764 340.76297048306196 Q 230.23622047244078 341.1566712704635 231.02362204724395 341.1566712704635 Q 231.81102362204712 341.1566712704635 232.59842519685026 341.55037205786505 Q 233.3858267716534 341.94407284526665 234.17322834645654 341.94407284526665 Q 234.96062992125968 341.94407284526665 236.14173228346442 341.55037205786505 Q 237.32283464566916 341.1566712704635 238.50393700787387 340.76297048306196 Q 239.68503937007858 340.36926969566036 241.65354330708647 339.97556890825877 L 243.62604724409434 339.57786812085715" stroke-linecap="round" />
</g>
		<g transform="matrix(0.67 0 0 0.67 -20.55 20.69)" id="O5zoCxX_7ppFWJZ4MKEux"  >
<path style="stroke: rgb(41,60,219); stroke-width: 4; stroke-dasharray: none; stroke-linecap: round; stroke-dashoffset: 0; stroke-linejoin: round; stroke-miterlimit: 10; fill: none; fill-rule: nonzero; opacity: 1;" transform=" translate(-275.51, -343.91)" d="M 269.60229921259827 342.7314744200698 Q 269.6062992125983 342.7314744200698 270.39370078740143 343.51887599487293 Q 271.18110236220457 344.30627756967607 271.9685039370077 344.30627756967607 Q 272.75590551181085 344.30627756967607 273.54330708661405 344.69997835707767 Q 274.3307086614172 345.09367914447927 274.72440944881873 345.09367914447927 Q 275.11811023622033 345.09367914447927 276.299212598425 345.09367914447927 Q 277.48031496062976 345.09367914447927 278.2677165354329 344.69997835707767 Q 279.0551181102361 344.30627756967607 280.2362204724408 344.30627756967607 L 281.42132283464554 344.30627756967607" stroke-linecap="round" />
</g>
		<g transform="matrix(0.67 0 0 0.67 -34.36 29.98)" id="dN9_M_-teUfyU3Xr6ghcm"  >
<path style="stroke: rgb(41,60,219); stroke-width: 4; stroke-dasharray: none; stroke-linecap: round; stroke-dashoffset: 0; stroke-linejoin: round; stroke-miterlimit: 10; fill: none; fill-rule: nonzero; opacity: 1;" transform=" translate(-255.04, -357.69)" d="M 255.43707086614157 356.9047027665265 Q 255.43307086614158 356.9047027665265 254.25196850393687 356.5110019791249 Q 253.07086614173215 356.11730119172336 252.67716535433055 356.11730119172336 Q 252.28346456692896 356.11730119172336 252.28346456692896 356.5110019791249 Q 252.28346456692896 356.9047027665265 252.28346456692896 357.2984035539281 Q 252.28346456692896 357.69210434132964 252.28346456692896 358.0858051287312 Q 252.28346456692896 358.4795059161328 253.4645669291337 358.8732067035344 Q 254.64566929133844 359.2669074909359 255.03937007874 359.2669074909359 Q 255.43307086614158 359.2669074909359 256.2204724409447 359.2669074909359 Q 257.00787401574786 359.2669074909359 257.4015748031494 358.8732067035344 Q 257.795275590551 358.4795059161328 257.795275590551 358.0858051287312 Q 257.795275590551 357.69210434132964 257.795275590551 357.2984035539281 Q 257.795275590551 356.9047027665265 257.4015748031494 356.5110019791249 Q 257.00787401574786 356.11730119172336 255.43307086614158 356.5110019791249 L 253.8542677165353 356.9087027665265" stroke-linecap="round" />
</g>
		<g transform="matrix(0.67 0 0 0.67 -35.95 39.54)" id="9Rhd1-PxxP6yPGMaMRSCt"  >
<path style="stroke: rgb(41,60,219); stroke-width: 4; stroke-dasharray: none; stroke-linecap: round; stroke-dashoffset: 0; stroke-linejoin: round; stroke-miterlimit: 10; fill: none; fill-rule: nonzero; opacity: 1;" transform=" translate(-252.68, -371.87)" d="M 227.87001574803136 371.86133268778633 Q 227.87401574803135 371.86533268778635 228.26771653543292 372.6527342625895 Q 228.6614173228345 373.44013583739263 229.05511811023607 373.83383662479423 Q 229.44881889763764 374.2275374121958 230.23622047244078 374.6212381995973 Q 231.02362204724392 375.0149389869989 231.41732283464552 375.4086397744005 Q 231.81102362204712 375.80234056180205 232.59842519685026 376.19604134920365 Q 233.3858267716534 376.58974213660525 234.17322834645654 376.58974213660525 Q 234.96062992125968 376.58974213660525 235.74803149606282 376.58974213660525 Q 236.53543307086596 376.58974213660525 236.92913385826756 376.58974213660525 Q 237.32283464566916 376.58974213660525 238.1102362204723 376.58974213660525 Q 238.89763779527544 376.58974213660525 239.68503937007858 376.58974213660525 Q 240.47244094488173 376.58974213660525 241.65354330708647 376.19604134920365 Q 242.8346456692912 375.80234056180205 243.22834645669278 375.4086397744005 Q 243.62204724409435 375.0149389869989 244.4094488188975 374.6212381995973 Q 245.19685039370063 374.2275374121958 245.5905511811022 373.83383662479423 Q 245.98425196850377 373.44013583739263 246.77165354330694 373.04643504999103 Q 247.5590551181101 372.6527342625895 247.95275590551168 372.25903347518795 Q 248.34645669291325 371.86533268778635 248.34645669291325 371.47163190038475 Q 248.34645669291325 371.07793111298315 248.74015748031482 370.68423032558155 Q 249.1338582677164 370.29052953818 249.52755905511796 370.29052953818 Q 249.92125984251953 370.29052953818 249.92125984251953 369.89682875077847 Q 249.92125984251953 369.50312796337687 250.3149606299211 369.10942717597527 Q 250.70866141732267 368.7157263885737 251.10236220472424 368.3220256011722 Q 251.49606299212581 367.9283248137706 251.88976377952739 367.534624026369 Q 252.28346456692896 367.14092323896745 252.28346456692896 366.7472224515659 Q 252.28346456692896 366.3535216641643 252.67716535433055 366.3535216641643 Q 253.07086614173215 366.3535216641643 253.07086614173215 365.9598208767627 Q 253.07086614173215 365.5661200893611 253.46456692913372 365.5661200893611 Q 253.8582677165353 365.5661200893611 253.8582677165353 365.9598208767627 Q 253.8582677165353 366.3535216641643 253.8582677165353 366.7472224515659 Q 253.8582677165353 367.14092323896745 254.25196850393687 367.9283248137706 Q 254.64566929133844 368.7157263885737 255.03937007874 369.10942717597527 Q 255.43307086614158 369.50312796337687 255.43307086614158 369.89682875077847 Q 255.43307086614158 370.29052953818 255.82677165354315 370.68423032558155 Q 256.2204724409447 371.07793111298315 256.6141732283463 371.47163190038475 Q 257.00787401574786 371.86533268778635 257.4015748031494 372.25903347518795 Q 257.795275590551 372.6527342625895 258.5826771653542 373.44013583739263 Q 259.37007874015734 374.2275374121958 259.7637795275589 374.6212381995973 Q 260.1574803149605 375.0149389869989 260.9448818897636 375.4086397744005 Q 261.73228346456676 375.80234056180205 262.12598425196836 376.19604134920365 Q 262.5196850393699 376.58974213660525 263.30708661417304 376.9834429240068 Q 264.09448818897624 377.3771437114084 264.8818897637794 377.3771437114084 Q 265.6692913385825 377.3771437114084 266.0629921259841 377.77084449881 Q 266.45669291338567 378.16454528621153 266.8503937007872 378.16454528621153 Q 267.2440944881888 378.16454528621153 267.6377952755904 378.16454528621153 Q 268.03149606299195 378.16454528621153 268.8188976377951 378.16454528621153 Q 269.6062992125983 378.16454528621153 269.9999999999999 378.16454528621153 Q 270.39370078740143 378.16454528621153 270.78740157480297 378.16454528621153 Q 271.18110236220457 378.16454528621153 271.57480314960617 378.16454528621153 Q 271.9685039370077 378.16454528621153 272.36220472440925 378.16454528621153 Q 272.75590551181085 378.16454528621153 273.54330708661405 378.16454528621153 Q 274.3307086614172 378.16454528621153 274.72440944881873 377.77084449881 Q 275.11811023622033 377.3771437114084 275.51181102362193 377.3771437114084 Q 275.9055118110235 377.3771437114084 276.6929133858266 377.3771437114084 L 277.4843149606298 377.3771437114084" stroke-linecap="round" />
</g>
</g>
</g>
</svg>