<?xml version="1.0" encoding="UTF-8" standalone="no" ?>
<!DOCTYPE svg PUBLIC "-//W3C//DTD SVG 1.1//EN" "http://www.w3.org/Graphics/SVG/1.1/DTD/svg11.dtd">
<svg xmlns="http://www.w3.org/2000/svg" xmlns:xlink="http://www.w3.org/1999/xlink" version="1.1" width="1178" height="579" viewBox="0 0 1178 579" xml:space="preserve">
<desc>Created with Fabric.js 4.6.0</desc>
<defs>
</defs>
<g transform="matrix(1.22 0 0 1.12 589.35 291.27)" id="eELliZ-ue8H_SRpAg8oZ-"  >
<g style="" vector-effect="non-scaling-stroke"   >
		<g transform="matrix(1.44 0 0 1.44 0 0)" id="3lKCV_NDh49rhlSDD8rw-"  >
<path style="stroke: rgb(179,179,179); stroke-width: 0; stroke-dasharray: none; stroke-linecap: butt; stroke-dashoffset: 0; stroke-linejoin: miter; stroke-miterlimit: 4; fill: rgb(255,242,209); fill-rule: nonzero; opacity: 1;" vector-effect="non-scaling-stroke"  transform=" translate(0, 0)" d="M -315.65853 133.57788 C -298.57705 92.82861 -261.33239 64.0585 -217.5899 57.823539999999994 L -196.95389 54.88213 L -196.95389 54.88213 C -167.02792 50.63395 -139.85025000000002 35.12809 -120.96534 11.527849999999994 L -68.29227 -53.89007 L -68.29227 -53.89007 C -41.35174000000001 -87.33664 -0.7216700000000031 -106.79399000000001 42.22556 -106.81601 L 142.89311 -106.81601 L 142.89311 -106.81601 C 164.03221000000002 -106.81601 184.53625 -114.04176000000001 201.00484 -127.29494 L 211.17072 -135.47598 L 211.17072 -135.47598 C 237.07817 -156.32513 268.24432 -169.60764999999998 301.22661 -173.85636 L 334.3302 -178.1207 L 333.84587999999997 178.12074 L -334.33022000000005 178.12074 z" stroke-linecap="round" />
</g>
		<g transform="matrix(1.07 0 0 0.94 122.58 89.58)" id="zoSA2NDyEvg7km3k5CM4p"  >
<path style="stroke: rgb(179,179,179); stroke-width: 0; stroke-dasharray: none; stroke-linecap: butt; stroke-dashoffset: 0; stroke-linejoin: miter; stroke-miterlimit: 4; fill: rgb(255,251,245); fill-rule: nonzero; opacity: 1;" vector-effect="non-scaling-stroke"  transform=" translate(0, 0)" d="M -318.59552 140.58433 C -299.59977000000003 95.26840999999999 -261.79310000000004 64.12416999999999 -218.24346000000003 57.91669999999999 L -194.92652000000004 54.593149999999994 L -194.92652000000004 54.593149999999994 C -166.21007000000003 50.49996999999999 -139.69008000000002 34.878879999999995 -120.07816000000004 10.505179999999996 L -69.25006000000005 -52.663990000000005 L -69.25006000000005 -52.663990000000005 C -41.476860000000045 -87.18053 -2.365020000000044 -106.81602000000001 38.615099999999956 -106.81602000000001 L 145.39606999999995 -106.81602000000001 L 145.39606999999995 -106.81602000000001 C 165.02479999999994 -106.81602000000001 184.17570999999995 -113.75163 200.23684999999995 -126.67691 L 212.12562999999994 -136.24446 L 212.12562999999994 -136.24446 C 237.49357999999995 -156.65945 266.93620999999996 -169.43915 297.74483999999995 -173.40786 L 334.33020999999997 -178.12072 L 333.84588999999994 178.12072 L -334.3302100000001 178.12072 z" stroke-linecap="round" />
</g>
</g>
</g>
</svg>