<?xml version="1.0" encoding="UTF-8" standalone="no" ?>
<!DOCTYPE svg PUBLIC "-//W3C//DTD SVG 1.1//EN" "http://www.w3.org/Graphics/SVG/1.1/DTD/svg11.dtd">
<svg xmlns="http://www.w3.org/2000/svg" xmlns:xlink="http://www.w3.org/1999/xlink" version="1.1" width="200" height="290" viewBox="0 0 200 290" xml:space="preserve">
<desc>Created with Fabric.js 4.6.0</desc>
<defs>
</defs>
<g transform="matrix(1 0 0 1 100 145)" id="IfxJ8yCnMCnHKXDo6NYTy"  >
<g style="" vector-effect="non-scaling-stroke"   >
		<g transform="matrix(0 -1 1 0 0 0)" id="6xBCQgywCCEikyQwTLMUX"  >
<g style="" vector-effect="non-scaling-stroke"   >
		<g transform="matrix(0 0.87 -1.5 0 0 0)" id="JMjLJn7qNmasgcD43jHR_"  >
<path style="stroke: rgb(81,105,211); stroke-width: 7; stroke-dasharray: none; stroke-linecap: butt; stroke-dashoffset: 0; stroke-linejoin: miter; stroke-miterlimit: 4; fill: rgb(255,251,245); fill-rule: nonzero; opacity: 1;" vector-effect="non-scaling-stroke"  transform=" translate(0, 0)" d="M -84.66368 -71.05538 C -84.66368 -78.57104 -74.14412 -84.66368 -61.167590000000004 -84.66368 L 59.971779999999995 -84.66368 L 59.971779999999995 -84.66368 C 73.60874 -84.66368 84.66368 -78.26096 84.66368 -70.36279 L 84.66368 70.23349 L 84.66368 70.23349 C 84.66368 78.20306000000001 73.50878 84.66368 59.74852 84.66368 L -59.74852 84.66368 L -59.74852 84.66368 C -73.50878 84.66368 -84.66368 78.20306 -84.66368 70.23349 z" stroke-linecap="round" />
</g>
		<g transform="matrix(0 1.25 -0.25 0 118.84 0)" id="cgVAm4Gq57vylcu0s6Qr0"  >
<path style="stroke: rgb(38,130,123); stroke-width: 0; stroke-dasharray: none; stroke-linecap: butt; stroke-dashoffset: 0; stroke-linejoin: miter; stroke-miterlimit: 4; fill: rgb(81,105,211); fill-rule: nonzero; opacity: 1;" vector-effect="non-scaling-stroke"  transform=" translate(0, 0)" d="M -31.5695 -21.48224 C -31.5695 -27.05328 -30.64366 -31.5695 -29.50157 -31.5695 L 29.14109 -31.5695 L 29.14109 -31.5695 C 30.48227 -31.5695 31.569509999999998 -26.265990000000002 31.569509999999998 -19.72379 L 31.569509999999998 0.5724699999999991 L 31.569509999999998 0.5724699999999991 C 31.569509999999998 17.69166 28.7245 31.569499999999998 25.214999999999996 31.569499999999998 L -25.21499 31.569499999999998 L -25.21499 31.569499999999998 C -28.72449 31.569499999999998 -31.5695 17.69166 -31.5695 0.5724699999999991 z" stroke-linecap="round" />
</g>
		<g transform="matrix(0 1.25 -0.25 0 118.84 0)" id="SLZmut1RQDNFokkPjxkiB"  >
<path style="stroke: rgb(38,130,123); stroke-width: 0; stroke-dasharray: none; stroke-linecap: butt; stroke-dashoffset: 0; stroke-linejoin: miter; stroke-miterlimit: 4; fill: rgb(81,105,211); fill-rule: nonzero; opacity: 1;" vector-effect="non-scaling-stroke"  transform=" translate(0, 0)" d="M -31.5695 -21.48224 C -31.5695 -27.05328 -30.64366 -31.5695 -29.50157 -31.5695 L 29.14109 -31.5695 L 29.14109 -31.5695 C 30.48227 -31.5695 31.569509999999998 -26.265990000000002 31.569509999999998 -19.72379 L 31.569509999999998 0.5724699999999991 L 31.569509999999998 0.5724699999999991 C 31.569509999999998 17.69166 28.7245 31.569499999999998 25.214999999999996 31.569499999999998 L -25.21499 31.569499999999998 L -25.21499 31.569499999999998 C -28.72449 31.569499999999998 -31.5695 17.69166 -31.5695 0.5724699999999991 z" stroke-linecap="round" />
</g>
		<g transform="matrix(0 1.25 -0.25 0 118.84 0)" id="pQ-s_AEB-pVZiOeKbwEgl"  >
<path style="stroke: rgb(38,130,123); stroke-width: 0; stroke-dasharray: none; stroke-linecap: butt; stroke-dashoffset: 0; stroke-linejoin: miter; stroke-miterlimit: 4; fill: rgb(81,105,211); fill-rule: nonzero; opacity: 1;" vector-effect="non-scaling-stroke"  transform=" translate(0, 0)" d="M -31.5695 -21.48224 C -31.5695 -27.05328 -30.64366 -31.5695 -29.50157 -31.5695 L 29.14109 -31.5695 L 29.14109 -31.5695 C 30.48227 -31.5695 31.569509999999998 -26.265990000000002 31.569509999999998 -19.72379 L 31.569509999999998 0.5724699999999991 L 31.569509999999998 0.5724699999999991 C 31.569509999999998 17.69166 28.7245 31.569499999999998 25.214999999999996 31.569499999999998 L -25.21499 31.569499999999998 L -25.21499 31.569499999999998 C -28.72449 31.569499999999998 -31.5695 17.69166 -31.5695 0.5724699999999991 z" stroke-linecap="round" />
</g>
		<g transform="matrix(0 1.25 -0.25 0 118.84 0)" id="NtZKZ_Shy-CaO0PdwmGck"  >
<path style="stroke: rgb(38,130,123); stroke-width: 0; stroke-dasharray: none; stroke-linecap: butt; stroke-dashoffset: 0; stroke-linejoin: miter; stroke-miterlimit: 4; fill: rgb(81,105,211); fill-rule: nonzero; opacity: 1;" vector-effect="non-scaling-stroke"  transform=" translate(0, 0)" d="M -31.5695 -21.48224 C -31.5695 -27.05328 -30.64366 -31.5695 -29.50157 -31.5695 L 29.14109 -31.5695 L 29.14109 -31.5695 C 30.48227 -31.5695 31.569509999999998 -26.265990000000002 31.569509999999998 -19.72379 L 31.569509999999998 0.5724699999999991 L 31.569509999999998 0.5724699999999991 C 31.569509999999998 17.69166 28.7245 31.569499999999998 25.214999999999996 31.569499999999998 L -25.21499 31.569499999999998 L -25.21499 31.569499999999998 C -28.72449 31.569499999999998 -31.5695 17.69166 -31.5695 0.5724699999999991 z" stroke-linecap="round" />
</g>
		<g transform="matrix(0 1.25 -0.25 0 118.84 0)" id="VTKTsqbtR0H9NCDzDCvJa"  >
<path style="stroke: rgb(38,130,123); stroke-width: 0; stroke-dasharray: none; stroke-linecap: butt; stroke-dashoffset: 0; stroke-linejoin: miter; stroke-miterlimit: 4; fill: rgb(81,105,211); fill-rule: nonzero; opacity: 1;" vector-effect="non-scaling-stroke"  transform=" translate(0, 0)" d="M -31.5695 -21.48224 C -31.5695 -27.05328 -30.64366 -31.5695 -29.50157 -31.5695 L 29.14109 -31.5695 L 29.14109 -31.5695 C 30.48227 -31.5695 31.569509999999998 -26.265990000000002 31.569509999999998 -19.72379 L 31.569509999999998 0.5724699999999991 L 31.569509999999998 0.5724699999999991 C 31.569509999999998 17.69166 28.7245 31.569499999999998 25.214999999999996 31.569499999999998 L -25.21499 31.569499999999998 L -25.21499 31.569499999999998 C -28.72449 31.569499999999998 -31.5695 17.69166 -31.5695 0.5724699999999991 z" stroke-linecap="round" />
</g>
</g>
</g>
		<g transform="matrix(0.19 0 0 0.19 0 -10.73)" id="_klx6CMV6B1ZLZ-YK3kSq"  >
<g style="" vector-effect="non-scaling-stroke"   >
		<g transform="matrix(6.77 0 0 0.92 -0.05 -49.78)" id="BtXJH-nxPvTYU08cTC-jO"  >
<path style="stroke: rgb(179,179,179); stroke-width: 2; stroke-dasharray: none; stroke-linecap: butt; stroke-dashoffset: 0; stroke-linejoin: miter; stroke-miterlimit: 4; fill: rgb(255,255,255); fill-rule: nonzero; opacity: 1;" vector-effect="non-scaling-stroke"  transform=" translate(0, 0)" d="M -36.20689 -20.84561 C -36.20689 -24.91968 -35.98691 -28.826880000000003 -35.59535 -31.70768 C -35.20378 -34.58848 -34.67271 -36.2069 -34.118950000000005 -36.2069 L 34.11894999999999 -36.2069 L 34.11894999999999 -36.2069 C 34.67270999999999 -36.2069 35.20377999999999 -34.58848 35.59534999999999 -31.707679999999996 C 35.98691999999999 -28.826879999999996 36.20688999999999 -24.919679999999996 36.20688999999999 -20.845609999999997 L 36.20688999999999 20.8456 L 36.20688999999999 20.8456 C 36.20688999999999 29.3294 35.272089999999984 36.20689 34.118949999999984 36.20689 L -34.11895000000001 36.20689 L -34.11895000000001 36.20689 C -35.27209000000001 36.20689 -36.206890000000016 29.329410000000003 -36.206890000000016 20.8456 z" stroke-linecap="round" />
</g>
		<g transform="matrix(6.77 0 0 0.92 0.05 49.78)" id="We0OBKUlbTiKAP3JiMHsp"  >
<path style="stroke: rgb(179,179,179); stroke-width: 2; stroke-dasharray: none; stroke-linecap: butt; stroke-dashoffset: 0; stroke-linejoin: miter; stroke-miterlimit: 4; fill: rgb(255,255,255); fill-rule: nonzero; opacity: 1;" vector-effect="non-scaling-stroke"  transform=" translate(0, 0)" d="M -36.20689 -20.84561 C -36.20689 -24.91968 -35.98691 -28.826880000000003 -35.59535 -31.70768 C -35.20378 -34.58848 -34.67271 -36.2069 -34.118950000000005 -36.2069 L 34.11894999999999 -36.2069 L 34.11894999999999 -36.2069 C 34.67270999999999 -36.2069 35.20377999999999 -34.58848 35.59534999999999 -31.707679999999996 C 35.98691999999999 -28.826879999999996 36.20688999999999 -24.919679999999996 36.20688999999999 -20.845609999999997 L 36.20688999999999 20.8456 L 36.20688999999999 20.8456 C 36.20688999999999 29.3294 35.272089999999984 36.20689 34.118949999999984 36.20689 L -34.11895000000001 36.20689 L -34.11895000000001 36.20689 C -35.27209000000001 36.20689 -36.206890000000016 29.329410000000003 -36.206890000000016 20.8456 z" stroke-linecap="round" />
</g>
</g>
</g>
</g>
</g>
</svg>