<?xml version="1.0" encoding="UTF-8" standalone="no" ?>
<!DOCTYPE svg PUBLIC "-//W3C//DTD SVG 1.1//EN" "http://www.w3.org/Graphics/SVG/1.1/DTD/svg11.dtd">
<svg xmlns="http://www.w3.org/2000/svg" xmlns:xlink="http://www.w3.org/1999/xlink" version="1.1" width="966" height="651" viewBox="0 0 966 651" xml:space="preserve">
<desc>Created with Fabric.js 4.6.0</desc>
<defs>
</defs>
<g transform="matrix(1 0 0 1 483.88 326.15)" id="Sl0Ld4anujvqKhtpcv4aU"  >
<g style="" vector-effect="non-scaling-stroke"   >
		<g transform="matrix(1.44 0 0 1.44 0 -0.05)" id="b2W6_Av_FTEfW4_eFZPfd"  >
<path style="stroke: rgb(179,179,179); stroke-width: 0; stroke-dasharray: none; stroke-linecap: butt; stroke-dashoffset: 0; stroke-linejoin: miter; stroke-miterlimit: 4; fill: rgb(255,242,209); fill-rule: nonzero; opacity: 1;" vector-effect="non-scaling-stroke"  transform=" translate(0, 0)" d="M -316.44998 183.07375 C -298.20651999999995 139.5504 -262.88311 105.43361999999999 -218.75221999999997 88.71327 L -79.80561999999998 36.055029999999995 L -79.80561999999998 36.055029999999995 C -11.47039999999997 10.509969999999996 43.08079000000002 -42.42943 70.66324000000003 -109.96802000000002 L 82.86707000000003 -137.21925000000002 L 82.86707000000003 -137.21925000000002 C 96.67944000000003 -167.52397000000002 121.88607000000002 -191.15867000000003 153.01623 -202.99380000000002 L 173.71161 -210.42849 L 173.71161 -210.42849 C 200.82848 -220.17006 229.42522000000002 -225.15084000000002 258.2388 -225.15084000000002 L 334.08806000000004 -225.15084000000002 L 334.08806000000004 225.1508 L -334.08804 225.1508 z" stroke-linecap="round" />
</g>
		<g transform="matrix(1.07 0 0 1.01 123.31 96.86)" id="1adx_v2hqYwwFKi0sbP3X"  >
<path style="stroke: rgb(179,179,179); stroke-width: 0; stroke-dasharray: none; stroke-linecap: butt; stroke-dashoffset: 0; stroke-linejoin: miter; stroke-miterlimit: 4; fill: rgb(255,251,245); fill-rule: nonzero; opacity: 1;" vector-effect="non-scaling-stroke"  transform=" translate(0, 0)" d="M -320.81348 193.48324 C -299.77786000000003 143.30104 -260.40193000000005 104.49485999999999 -211.84774000000004 86.0942 L -90.27716000000004 40.02239 L -90.27716000000004 40.02239 C -16.074560000000034 11.901700000000002 44.38426999999996 -46.91896 77.45260999999996 -123.16264999999999 L 80.27397999999997 -129.66771 L 80.27397999999997 -129.66771 C 95.75258999999997 -165.35581 124.30858999999997 -192.68074000000001 159.24029999999996 -205.22975 L 172.11262999999997 -209.85406 L 172.11262999999997 -209.85406 C 200.31159999999997 -219.98437 229.86799999999997 -225.15083 259.62273999999996 -225.15083 L 334.08804999999995 -225.15083 L 334.08804999999995 225.15081 L -334.08805000000007 225.15081 z" stroke-linecap="round" />
</g>
</g>
</g>
</svg>